<?xml version="1.0" encoding="UTF-8"?>
<!DOCTYPE svg PUBLIC "-//W3C//DTD SVG 1.1//EN" "http://www.w3.org/Graphics/SVG/1.1/DTD/svg11.dtd">
<!-- Creator: CorelDRAW 2019 (64-Bit) -->
<svg xmlns="http://www.w3.org/2000/svg" xml:space="preserve" width="87.1026mm" height="64.6337mm" version="1.1" style="shape-rendering:geometricPrecision; text-rendering:geometricPrecision; image-rendering:optimizeQuality; fill-rule:evenodd; clip-rule:evenodd"
viewBox="0 0 574.72 426.46"
 xmlns:xlink="http://www.w3.org/1999/xlink">
 <defs>
  <style type="text/css">
   <![CDATA[
    .fil3 {fill:#C4D34C}
    .fil1 {fill:#095540}
    .fil2 {fill:#FAF9F4}
    .fil4 {fill:#FEFEFE;fill-rule:nonzero}
    .fil0 {fill:#FEFEFE;fill-rule:nonzero}
   ]]>
  </style>
 </defs>
 <g id="Слой_x0020_1">
  <metadata id="CorelCorpID_0Corel-Layer"/>
  <g id="_1640589833632">
   <path class="fil0" d="M288.07 351.43c36.29,0 69.14,-14.66 92.91,-38.37 23.78,-23.71 38.48,-56.46 38.48,-92.64 0,-36.18 -14.71,-68.93 -38.48,-92.64 -23.78,-23.71 -56.63,-38.37 -92.91,-38.37 -36.29,0 -69.14,14.66 -92.91,38.37 -23.78,23.71 -38.48,56.46 -38.48,92.64 0,36.18 14.71,68.93 38.48,92.64 23.78,23.71 56.63,38.37 92.91,38.37zm93.84 -37.44c-24.02,23.95 -57.19,38.76 -93.84,38.76 -36.64,0 -69.82,-14.81 -93.84,-38.76 -24.02,-23.95 -38.87,-57.03 -38.87,-93.57 0,-36.54 14.86,-69.62 38.87,-93.57 24.02,-23.95 57.2,-38.76 93.84,-38.76 36.65,0 69.82,14.81 93.84,38.76 24.02,23.95 38.87,57.03 38.87,93.57 0,36.54 -14.86,69.62 -38.87,93.57z"/>
   <path class="fil1" d="M209.71 356.62c15.68,0 28.39,-12.72 28.39,-28.41 0,-15.69 -12.71,-28.41 -28.39,-28.41 -15.68,0 -28.39,12.72 -28.39,28.41 0,15.69 12.71,28.41 28.39,28.41z"/>
   <path class="fil1" d="M366.52 358.65c15.68,0 28.39,-12.72 28.39,-28.41 0,-15.69 -12.71,-28.41 -28.39,-28.41 -15.68,0 -28.39,12.72 -28.39,28.41 0,15.69 12.71,28.41 28.39,28.41z"/>
   <path class="fil1" d="M165.78 201.73c15.68,0 28.39,-12.72 28.39,-28.41 0,-15.69 -12.71,-28.41 -28.39,-28.41 -15.68,0 -28.39,12.72 -28.39,28.41 0,15.69 12.71,28.41 28.39,28.41z"/>
   <path class="fil1" d="M408.42 201.06c15.68,0 28.39,-12.72 28.39,-28.41 0,-15.69 -12.71,-28.41 -28.39,-28.41 -15.68,0 -28.39,12.72 -28.39,28.41 0,15.69 12.71,28.41 28.39,28.41z"/>
   <path class="fil1" d="M290.48 124.83c15.79,0 28.59,-12.76 28.59,-28.51 0,-15.75 -12.8,-28.51 -28.59,-28.51 -15.79,0 -28.59,12.76 -28.59,28.51 0,15.75 12.8,28.51 28.59,28.51z"/>
   <path class="fil2" d="M400.41 142.28l-8.57 4.69 7.52 3.55 1.05 -8.24zm-17.34 162.3l8.24 5.25 -7.74 3.04 -0.5 -8.29zm-150.36 34.16l8.27 -0.88 -4.87 8.47 -3.4 -7.58zm-74.35 -141.2l3.33 7.61 -9.54 -2.1 6.22 -5.51zm101.07 -100.98l0.17 -9.76 6.64 4.99 -6.81 4.77z"/>
   <path class="fil3" d="M278.27 81.2l24.42 0c1.1,0 2.04,0.41 2.79,1.22 0.75,0.81 1.09,1.78 1.01,2.87l-1.67 22.63c-0.15,2 -1.8,3.53 -3.8,3.53l-9.1 0 0 -12.17c0,-0.79 -0.65,-1.44 -1.44,-1.44l0 0c-0.79,0 -1.44,0.65 -1.44,1.44l0 12.17 -9.1 0c-2,0 -3.65,-1.54 -3.8,-3.53l-1.67 -22.63c-0.08,-1.1 0.26,-2.07 1.01,-2.87 0.75,-0.8 1.69,-1.22 2.79,-1.22zm7.49 5.11l9.44 0c1.15,0 2.09,0.94 2.09,2.09l0 2.3c0,1.15 -0.94,2.09 -2.09,2.09l-2.73 0 1.57 -3.02c0.24,-0.46 0.08,-1.02 -0.36,-1.29l-0.09 -0.06c-0.44,-0.27 -1.01,-0.15 -1.31,0.27l-2.89 4.1 -3.62 0c-1.15,0 -2.09,-0.94 -2.09,-2.09l0 -2.3c0,-1.15 0.94,-2.09 2.09,-2.09z"/>
   <path class="fil3" d="M408.42 149.27c12.91,0 23.38,10.47 23.38,23.38 0,12.91 -10.47,23.38 -23.38,23.38 -12.91,0 -23.38,-10.47 -23.38,-23.38 0,-12.91 10.47,-23.38 23.38,-23.38zm5.62 22.51l-5.62 3.46 -5.62 -3.46c-1.15,-0.7 -2.66,-0.34 -3.37,0.8l-0.98 1.59c-0.7,1.15 -0.34,2.66 0.8,3.37l2.71 1.67 -2.71 1.67c-1.15,0.7 -1.51,2.22 -0.8,3.37l0.98 1.59c0.7,1.15 2.22,1.51 3.37,0.8l5.62 -3.46 5.62 3.46c1.15,0.7 2.66,0.34 3.37,-0.8l0.98 -1.59c0.7,-1.15 0.34,-2.66 -0.8,-3.37l-2.71 -1.67 2.71 -1.67c1.15,-0.7 1.51,-2.22 0.8,-3.37l-0.98 -1.59c-0.7,-1.15 -2.22,-1.51 -3.37,-0.8zm-14.35 -10.14c1.26,0 2.28,1.02 2.28,2.28 0,1.26 -1.02,2.28 -2.28,2.28 -1.26,0 -2.28,-1.02 -2.28,-2.28 0,-1.26 1.02,-2.28 2.28,-2.28zm17.45 0c1.26,0 2.28,1.02 2.28,2.28 0,1.26 -1.02,2.28 -2.28,2.28 -1.26,0 -2.28,-1.02 -2.28,-2.28 0,-1.26 1.02,-2.28 2.28,-2.28z"/>
   <path class="fil3" d="M366.52 306.86c12.91,0 23.38,10.47 23.38,23.38 0,12.91 -10.47,23.38 -23.38,23.38 -12.91,0 -23.38,-10.47 -23.38,-23.38 0,-12.91 10.47,-23.38 23.38,-23.38zm-8.17 33.04c-0.3,0.31 -0.79,0.31 -1.1,0.01 -0.3,-0.3 -0.31,-0.79 -0.01,-1.1l5.03 -5.14c-0.18,-2.7 -1.34,-4.77 -1.34,-4.78 -0.21,-0.37 -0.07,-0.85 0.3,-1.05 0.37,-0.21 0.85,-0.07 1.05,0.3 0,0.01 0.97,1.72 1.38,4.11l4.33 -4.43c1.05,-3.55 -0.86,-6.26 -0.87,-6.27 -0.24,-0.35 -0.15,-0.84 0.2,-1.08 0.35,-0.24 0.84,-0.15 1.08,0.2 0.01,0.01 1.53,2.17 1.45,5.25l4.11 -4.21c0.3,-0.3 0.79,-0.31 1.1,-0.01 0.31,0.3 0.31,0.79 0.01,1.1l-3.98 4.06c3.22,-0.21 5.23,1.66 5.24,1.67 0.32,0.29 0.34,0.78 0.05,1.1 -0.29,0.32 -0.78,0.34 -1.1,0.05 -0.01,-0.01 -2.39,-2.24 -6.17,-0.79l-4.3 4.4c2.48,0.29 3.89,1.12 3.89,1.12 0.37,0.22 0.5,0.69 0.28,1.06 -0.21,0.37 -0.69,0.5 -1.06,0.28 -0,-0 -1.61,-0.95 -4.54,-1.01l-5.04 5.15zm19.33 -13.81c0.93,0.65 1.53,1.73 1.52,2.94 -0.02,1.95 -1.62,3.52 -3.57,3.5 -0.36,-0 -0.71,-0.06 -1.04,-0.17 0.72,0.65 1.16,1.6 1.15,2.65 -0.02,1.95 -1.62,3.52 -3.57,3.5 -0.68,-0.01 -1.31,-0.2 -1.85,-0.54 0.46,0.61 0.74,1.36 0.73,2.18 -0.02,1.95 -1.62,3.52 -3.57,3.5 -1.21,-0.01 -2.27,-0.63 -2.9,-1.56 -3.57,-2.3 -6.62,1.66 -9.35,-0.88 -2.57,-2.39 0.86,-6.34 -0.91,-9.39 -0.42,-0.35 -0.55,-0.59 -0.84,-1.03 -0.28,-0.5 -0.43,-1.08 -0.43,-1.69 0,-1.95 1.58,-3.54 3.54,-3.54 0.82,0 1.58,0.28 2.18,0.75 -0.33,-0.54 -0.52,-1.17 -0.52,-1.85 0,-1.95 1.58,-3.54 3.54,-3.54 1.05,0 1.99,0.46 2.64,1.18 -0.1,-0.33 -0.16,-0.68 -0.16,-1.04 0,-1.95 1.58,-3.54 3.54,-3.54 1.22,0 2.29,0.61 2.93,1.55 0.9,-1.38 2.45,-2.29 4.22,-2.29 2.8,0 5.1,2.26 5.07,5.09 -0.02,1.77 -0.94,3.31 -2.33,4.19zm-11.15 -12.13c2.43,0 4.74,0.53 6.82,1.49 0.51,-0.13 1.05,-0.2 1.6,-0.2l0.01 0.01 0.06 0c1.8,0.02 3.44,0.75 4.62,1.93 1.19,1.19 1.93,2.83 1.93,4.65l0 0.06c-0.01,0.55 -0.08,1.08 -0.21,1.58 0.94,2.05 1.46,4.34 1.46,6.74 0,4.49 -1.82,8.57 -4.77,11.51 -2.95,2.95 -7.02,4.77 -11.51,4.77 -3.4,0 -6.55,-1.04 -9.16,-2.82 -1.05,0 -2.1,-0.31 -3.2,-1.33 -1.2,-1.12 -1.53,-2.33 -1.51,-3.6 -1.53,-2.48 -2.41,-5.4 -2.41,-8.53 0,-4.5 1.82,-8.57 4.77,-11.51 2.95,-2.95 7.02,-4.77 11.51,-4.77zm4.75 2.41c-1.49,-0.51 -3.09,-0.79 -4.75,-0.79 -6.68,0 -12.32,4.47 -14.09,10.58 0.16,-0.23 0.35,-0.44 0.54,-0.64 0.92,-0.92 2.19,-1.49 3.6,-1.49l0.12 0c0.11,-1.23 0.65,-2.33 1.47,-3.15 0.92,-0.92 2.19,-1.49 3.6,-1.49 0.4,0 0.79,0.05 1.17,0.14 0.25,-0.78 0.68,-1.48 1.25,-2.05 0.92,-0.92 2.2,-1.49 3.6,-1.49 0.85,0 1.66,0.21 2.38,0.59 0.16,0.08 0.31,0.18 0.46,0.28 0.2,-0.18 0.42,-0.34 0.64,-0.49zm-19.48 11.01c-0.01,0.04 -0.03,0.08 -0.04,0.11 0.01,-0.04 0.03,-0.08 0.04,-0.11zm-0.22 0.79c-0.01,0.04 -0.02,0.08 -0.02,0.12 0.01,-0.04 0.01,-0.08 0.02,-0.12zm0.31 2.93c0.1,1.73 0.5,3.39 1.15,4.91 0.22,-1.15 0.42,-2.32 0.03,-3.19 -0.36,-0.34 -0.54,-0.61 -0.79,-0.99l-0 0 -0.1 -0.14 -0.07 -0.12c-0.08,-0.15 -0.16,-0.31 -0.23,-0.46zm7.96 12.2c1.76,0.9 3.73,1.46 5.81,1.58 -0.19,-0.07 -0.38,-0.16 -0.56,-0.26 -0.61,-0.33 -1.15,-0.78 -1.58,-1.32 -1.16,-0.62 -2.4,-0.31 -3.56,-0.03l-0.12 0.03zm10.39 1.13c6.3,-1.64 10.95,-7.37 10.95,-14.19 0,-1.64 -0.27,-3.22 -0.77,-4.69 -0.16,0.23 -0.33,0.45 -0.51,0.65 0.1,0.15 0.19,0.31 0.27,0.47 0.37,0.71 0.57,1.51 0.56,2.37l0.01 0 -0.01 0.01c-0.01,1.41 -0.6,2.67 -1.52,3.58 -0.57,0.56 -1.28,0.99 -2.06,1.23 0.08,0.37 0.13,0.76 0.12,1.16l0.01 0 -0.01 0.01c-0.01,1.41 -0.6,2.67 -1.52,3.58 -0.83,0.81 -1.94,1.35 -3.17,1.44l0 0.12c-0.01,1.41 -0.6,2.67 -1.52,3.58 -0.25,0.25 -0.53,0.47 -0.84,0.66z"/>
   <path class="fil3" d="M209.71 304.83c12.91,0 23.38,10.47 23.38,23.38 0,5.58 -1.95,10.7 -5.21,14.72 -0.43,-0.36 -0.82,-0.82 -1.21,-1.29 -1.22,-1.46 -2.53,-3.01 -5.32,-3.07 -2.68,-0.05 -3.71,1.44 -4.77,2.98 -0.88,1.27 -1.78,2.59 -4.07,2.55 -2.35,-0.04 -3.37,-1.41 -4.34,-2.7 -1.12,-1.5 -2.19,-2.92 -4.68,-2.92 -2.82,0 -4.45,1.66 -6.01,3.24 -1.01,1.03 -1.99,2.02 -3.19,2.32 -0.55,0.13 -1.08,0.2 -1.57,0.23 -3.95,-4.19 -6.38,-9.84 -6.38,-16.05 0,-12.91 10.47,-23.38 23.38,-23.38zm17.1 39.33c-4.27,4.57 -10.35,7.44 -17.1,7.44 -5.95,0 -11.39,-2.23 -15.52,-5.89 0.15,-0.03 0.31,-0.06 0.46,-0.1 1.65,-0.4 2.79,-1.56 3.96,-2.75 1.33,-1.35 2.71,-2.76 4.86,-2.76 1.69,0 2.52,1.11 3.39,2.27 1.2,1.6 2.47,3.3 5.61,3.35 3.15,0.05 4.3,-1.62 5.42,-3.25 0.81,-1.18 1.6,-2.32 3.42,-2.29 2.05,0.04 3.11,1.3 4.11,2.49 0.45,0.53 0.88,1.05 1.38,1.49zm-29.39 -6.7c-0.25,0.37 -0.75,0.47 -1.12,0.22 -0.37,-0.25 -0.47,-0.75 -0.22,-1.12l2.32 -3.48c0.25,-0.37 0.75,-0.47 1.12,-0.22 0.37,0.25 0.47,0.75 0.22,1.12l-2.32 3.48zm23.41 -3.56c-0.3,-0.33 -0.28,-0.84 0.05,-1.14 0.33,-0.3 0.84,-0.28 1.14,0.05l2.9 3.17c0.3,0.33 0.28,0.84 -0.05,1.14 -0.33,0.3 -0.84,0.28 -1.14,-0.05l-2.9 -3.17zm3.82 -7.87c-0.24,0.38 -0.74,0.48 -1.12,0.24 -0.38,-0.24 -0.48,-0.74 -0.24,-1.12l2.32 -3.62c0.24,-0.38 0.74,-0.48 1.12,-0.24 0.38,0.24 0.48,0.74 0.24,1.12l-2.32 3.61zm-7.93 -12.03c-0.32,-0.31 -0.34,-0.82 -0.03,-1.14 0.31,-0.32 0.82,-0.34 1.14,-0.03l2.99 2.86c0.32,0.31 0.34,0.82 0.03,1.14 -0.31,0.32 -0.82,0.34 -1.14,0.03l-2.99 -2.86zm-9.69 -0.43c-0.23,0.38 -0.73,0.5 -1.11,0.26 -0.38,-0.23 -0.5,-0.73 -0.26,-1.11l2.32 -3.75c0.23,-0.38 0.73,-0.5 1.11,-0.26 0.38,0.23 0.5,0.73 0.26,1.11l-2.32 3.75zm-9.2 1.45c-0.22,-0.39 -0.09,-0.88 0.3,-1.1 0.39,-0.22 0.88,-0.09 1.1,0.3l2.1 3.66c0.22,0.39 0.09,0.88 -0.3,1.1 -0.39,0.22 -0.88,0.09 -1.1,-0.3l-2.1 -3.66zm-4.94 5.92c0.23,-0.38 0.73,-0.5 1.11,-0.27 0.38,0.23 0.5,0.73 0.27,1.11l-2.1 3.44c-0.23,0.38 -0.73,0.5 -1.11,0.27 -0.38,-0.23 -0.5,-0.73 -0.27,-1.11l2.1 -3.44zm17.07 1.4c3.08,0 5.58,2.5 5.58,5.58 0,3.08 -2.5,5.58 -5.58,5.58 -3.08,0 -5.58,-2.5 -5.58,-5.58 0,-3.08 2.5,-5.58 5.58,-5.58z"/>
   <path class="fil3" d="M165.78 149.94c12.91,0 23.38,10.47 23.38,23.38 0,12.91 -10.47,23.38 -23.38,23.38 -12.91,0 -23.38,-10.47 -23.38,-23.38 0,-12.91 10.47,-23.38 23.38,-23.38zm-3.79 17.01c-0.07,1.33 -0.63,2.52 -1.51,3.4 -0.94,0.94 -2.24,1.52 -3.67,1.52 -1.43,0 -2.73,-0.58 -3.67,-1.52 -0.88,-0.88 -1.45,-2.08 -1.51,-3.4l1.62 0c0.14,1.85 1.68,3.3 3.56,3.3 1.88,0 3.42,-1.46 3.56,-3.3l1.62 0zm-0.81 -5.71c-2.25,1.88 -5.3,3.04 -8.65,3.04l-0.06 0 0.19 -1.62c2.7,-0.03 5.16,-0.89 7.05,-2.31l1.48 0.89zm8.39 5.71c0.07,1.33 0.63,2.52 1.51,3.4 0.94,0.94 2.24,1.52 3.67,1.52 1.43,0 2.73,-0.58 3.67,-1.52 0.88,-0.88 1.45,-2.08 1.51,-3.4l-1.62 0c-0.14,1.85 -1.68,3.3 -3.56,3.3 -1.88,0 -3.42,-1.46 -3.56,-3.3l-1.62 0zm0.81 -5.71c2.25,1.88 5.3,3.04 8.65,3.04l0.06 0 -0.19 -1.62c-2.7,-0.03 -5.16,-0.89 -7.05,-2.31l-1.48 0.89zm-10.58 17.13l11.96 0c2.48,0 4.51,2.03 4.51,4.51l0 0c0,2.48 -2.03,4.51 -4.51,4.51l-11.96 0c-2.48,0 -4.51,-2.03 -4.51,-4.51l0 0c0,-2.48 2.03,-4.51 4.51,-4.51z"/>
  </g>
  <g id="_1640589795840">
   <path class="fil4" d="M260.69 16.98l-5.96 0 0 -16.89 5.96 0c2.7,0 4.91,0.79 6.63,2.36 1.72,1.58 2.58,3.6 2.58,6.08 0,2.49 -0.86,4.53 -2.58,6.1 -1.7,1.56 -3.92,2.34 -6.63,2.34zm-3.31 -14.45l0 12.01 3.06 0c2.12,0 3.77,-0.54 4.95,-1.62 1.19,-1.09 1.79,-2.56 1.79,-4.39 0,-1.83 -0.6,-3.3 -1.79,-4.39 -1.17,-1.08 -2.82,-1.62 -4.95,-1.62l-3.06 0zm17.37 14.45l-2.82 0 7.38 -16.98 2.56 0 7.38 16.98 -2.85 0 -1.83 -4.2 -8.01 0 -1.81 4.2zm5.81 -13.63l-3.09 7.09 6.18 0 -3.09 -7.09zm18.79 13.63l-2.65 0 0 -7.65 -6.54 -9.24 3.09 0 4.82 6.83 4.82 -6.83 2.99 0 -6.54 9.17 0 7.72zm20.12 0l-2.61 0 0 -14.04 -3.69 1.98 0 -2.58 3.98 -2.24 2.32 0 0 16.89z"/>
   <path class="fil4" d="M221.62 34.33l0 -4.31 1.06 0 0 10.26 -1.06 0 0 -1.13c-0.66,0.87 -1.58,1.3 -2.74,1.3 -1.05,0 -1.9,-0.36 -2.56,-1.08 -0.66,-0.72 -1,-1.6 -1,-2.62 0,-1.04 0.33,-1.91 1,-2.64 0.66,-0.72 1.52,-1.08 2.56,-1.08 1.16,0 2.08,0.43 2.74,1.3zm0 3.58l0 -2.33c-0.21,-0.47 -0.54,-0.85 -1,-1.15 -0.46,-0.3 -0.96,-0.45 -1.49,-0.45 -0.79,0 -1.44,0.27 -1.95,0.81 -0.52,0.54 -0.78,1.19 -0.78,1.96 0,0.77 0.26,1.43 0.78,1.96 0.52,0.53 1.17,0.79 1.95,0.79 0.53,0 1.02,-0.15 1.48,-0.45 0.46,-0.3 0.8,-0.68 1.01,-1.15zm6.93 2.55c-1.1,0 -2.03,-0.35 -2.78,-1.04 -0.74,-0.68 -1.11,-1.57 -1.11,-2.67 0,-1.05 0.33,-1.94 1,-2.65 0.67,-0.71 1.54,-1.07 2.59,-1.07 0.57,0 1.07,0.11 1.51,0.34 0.44,0.23 0.79,0.53 1.04,0.9 0.25,0.37 0.44,0.76 0.57,1.18 0.13,0.42 0.19,0.83 0.19,1.25l0 0.29 -5.82 0c0.06,0.76 0.36,1.37 0.92,1.82 0.55,0.45 1.25,0.68 2.1,0.68 0.82,0 1.58,-0.22 2.27,-0.66l0 0.94c-0.58,0.45 -1.4,0.67 -2.48,0.67zm-2.8 -4.32l4.73 0c-0.03,-0.55 -0.23,-1.04 -0.61,-1.48 -0.36,-0.45 -0.92,-0.67 -1.67,-0.67 -0.7,0 -1.28,0.22 -1.73,0.64 -0.44,0.44 -0.68,0.94 -0.72,1.51zm11.03 4.32c-1.08,0 -1.98,-0.35 -2.7,-1.05 -0.71,-0.71 -1.07,-1.6 -1.07,-2.67 0,-1.06 0.36,-1.93 1.08,-2.64 0.71,-0.71 1.61,-1.07 2.7,-1.07 0.82,0 1.53,0.17 2.14,0.51l0 0.98c-0.64,-0.36 -1.3,-0.54 -1.99,-0.54 -0.82,0 -1.5,0.26 -2.04,0.79 -0.54,0.51 -0.81,1.17 -0.81,1.98 0,0.79 0.27,1.45 0.81,1.98 0.55,0.52 1.23,0.78 2.04,0.78 0.78,0 1.49,-0.21 2.12,-0.62l0 0.97c-0.66,0.4 -1.43,0.6 -2.29,0.6zm5.64 -0.18l-1.06 0 0 -7.08 1.06 0 0 7.08zm-1.06 -8.98c-0.14,-0.15 -0.21,-0.32 -0.21,-0.53 0,-0.21 0.07,-0.38 0.21,-0.53 0.15,-0.15 0.32,-0.22 0.53,-0.22 0.21,0 0.38,0.07 0.53,0.22 0.15,0.15 0.22,0.32 0.22,0.53 0,0.21 -0.07,0.38 -0.22,0.53 -0.15,0.14 -0.32,0.21 -0.53,0.21 -0.21,0 -0.38,-0.07 -0.53,-0.21zm9.52 3.03l0 -4.31 1.06 0 0 10.26 -1.06 0 0 -1.13c-0.66,0.87 -1.58,1.3 -2.74,1.3 -1.05,0 -1.9,-0.36 -2.56,-1.08 -0.66,-0.72 -1,-1.6 -1,-2.62 0,-1.04 0.33,-1.91 1,-2.64 0.66,-0.72 1.52,-1.08 2.56,-1.08 1.16,0 2.08,0.43 2.74,1.3zm0 3.58l0 -2.33c-0.21,-0.47 -0.54,-0.85 -1,-1.15 -0.46,-0.3 -0.96,-0.45 -1.49,-0.45 -0.79,0 -1.44,0.27 -1.95,0.81 -0.52,0.54 -0.78,1.19 -0.78,1.96 0,0.77 0.26,1.43 0.78,1.96 0.52,0.53 1.17,0.79 1.95,0.79 0.53,0 1.02,-0.15 1.48,-0.45 0.46,-0.3 0.8,-0.68 1.01,-1.15zm4.76 2.37l-1.06 0 0 -7.08 1.06 0 0 7.08zm-1.06 -8.98c-0.14,-0.15 -0.21,-0.32 -0.21,-0.53 0,-0.21 0.07,-0.38 0.21,-0.53 0.15,-0.15 0.32,-0.22 0.53,-0.22 0.21,0 0.38,0.07 0.53,0.22 0.15,0.15 0.22,0.32 0.22,0.53 0,0.21 -0.07,0.38 -0.22,0.53 -0.15,0.14 -0.32,0.21 -0.53,0.21 -0.21,0 -0.38,-0.07 -0.53,-0.21zm4.79 4.2l0 4.78 -1.05 0 0 -7.08 1.05 0 0 1.08c0.75,-0.84 1.7,-1.26 2.83,-1.26 0.87,0 1.54,0.26 2,0.77 0.46,0.51 0.7,1.24 0.7,2.18l0 4.31 -1.06 0 0 -4.07c0,-1.46 -0.67,-2.18 -2.01,-2.18 -0.49,0 -0.96,0.15 -1.42,0.45 -0.47,0.3 -0.82,0.64 -1.04,1.03zm13.67 4.32l0 -0.75c-0.63,0.84 -1.55,1.26 -2.74,1.26 -1.05,0 -1.9,-0.35 -2.56,-1.06 -0.66,-0.72 -1,-1.59 -1,-2.59 0,-1.01 0.33,-1.87 1,-2.59 0.65,-0.71 1.51,-1.07 2.56,-1.07 1.21,0 2.12,0.42 2.74,1.26l0 -1.08 1.06 0 0 6.62c0,1.11 -0.37,1.96 -1.1,2.55 -0.71,0.6 -1.63,0.89 -2.74,0.89 -1.07,0 -1.99,-0.22 -2.74,-0.64l0 -1.03c0.8,0.48 1.68,0.72 2.64,0.72 0.88,0 1.58,-0.21 2.1,-0.63 0.52,-0.42 0.78,-1.04 0.78,-1.86zm0 -1.99l0 -2.3c-0.2,-0.46 -0.52,-0.83 -0.98,-1.12 -0.46,-0.29 -0.96,-0.43 -1.51,-0.43 -0.78,0 -1.43,0.26 -1.95,0.78 -0.52,0.52 -0.78,1.16 -0.78,1.93 0,0.77 0.26,1.42 0.78,1.93 0.51,0.51 1.16,0.76 1.95,0.76 0.55,0 1.05,-0.14 1.51,-0.43 0.46,-0.29 0.79,-0.66 0.98,-1.12zm10.21 2.62c-0.65,0 -1.15,-0.19 -1.49,-0.58 -0.34,-0.39 -0.51,-0.92 -0.51,-1.6l0 -4.15 -1.67 0 0 -0.92 1.67 0 0 -2.18 1.06 0 0 2.18 2.48 0 0 0.92 -2.48 0 0 3.82c0,0.57 0.09,0.96 0.28,1.17 0.2,0.22 0.51,0.34 0.95,0.34 0.43,0 0.82,-0.1 1.16,-0.29l0 0.97c-0.3,0.22 -0.79,0.32 -1.45,0.32zm4.04 -6.33c0.71,-0.73 1.63,-1.1 2.75,-1.1 1.12,0 2.04,0.37 2.75,1.1 0.71,0.71 1.07,1.59 1.07,2.62 0,1.04 -0.36,1.91 -1.07,2.62 -0.72,0.72 -1.64,1.08 -2.75,1.08 -1.11,0 -2.03,-0.36 -2.75,-1.08 -0.71,-0.71 -1.07,-1.59 -1.07,-2.62 0,-1.04 0.36,-1.91 1.07,-2.62zm5.49 2.62c0,-0.78 -0.26,-1.44 -0.78,-1.98 -0.52,-0.53 -1.17,-0.79 -1.96,-0.79 -0.79,0 -1.45,0.26 -1.96,0.79 -0.52,0.54 -0.78,1.2 -0.78,1.98 0,0.77 0.26,1.43 0.78,1.96 0.52,0.53 1.17,0.79 1.96,0.79 0.79,0 1.45,-0.26 1.96,-0.79 0.52,-0.54 0.78,-1.19 0.78,-1.96zm10.3 3.71c-1.1,0 -2.03,-0.35 -2.78,-1.04 -0.74,-0.68 -1.11,-1.57 -1.11,-2.67 0,-1.05 0.33,-1.94 1,-2.65 0.67,-0.71 1.54,-1.07 2.59,-1.07 0.57,0 1.07,0.11 1.51,0.34 0.44,0.23 0.79,0.53 1.04,0.9 0.25,0.37 0.44,0.76 0.57,1.18 0.13,0.42 0.19,0.83 0.19,1.25l0 0.29 -5.82 0c0.06,0.76 0.36,1.37 0.92,1.82 0.55,0.45 1.25,0.68 2.1,0.68 0.82,0 1.58,-0.22 2.27,-0.66l0 0.94c-0.58,0.45 -1.4,0.67 -2.48,0.67zm-2.8 -4.32l4.73 0c-0.03,-0.55 -0.23,-1.04 -0.61,-1.48 -0.36,-0.45 -0.92,-0.67 -1.67,-0.67 -0.7,0 -1.28,0.22 -1.73,0.64 -0.44,0.44 -0.68,0.94 -0.72,1.51zm10.17 3.37c0.49,0 0.95,-0.11 1.39,-0.34 0.44,-0.22 0.8,-0.51 1.07,-0.85l0 -0.98c-0.72,-0.47 -1.49,-0.7 -2.3,-0.7 -0.64,0 -1.15,0.13 -1.53,0.38 -0.38,0.25 -0.56,0.6 -0.56,1.04 0,0.46 0.18,0.82 0.54,1.07 0.36,0.25 0.82,0.38 1.39,0.38zm-0.29 0.95c-0.75,0 -1.39,-0.2 -1.92,-0.61 -0.52,-0.43 -0.78,-1.01 -0.78,-1.73 0,-0.71 0.27,-1.28 0.82,-1.71 0.55,-0.42 1.24,-0.63 2.08,-0.63 0.92,0 1.77,0.23 2.55,0.69l0 -0.7c0,-1.18 -0.78,-1.77 -2.33,-1.77 -0.83,0 -1.6,0.24 -2.32,0.72l0 -1.03c0.69,-0.43 1.54,-0.64 2.54,-0.64 0.97,0 1.74,0.23 2.31,0.68 0.57,0.45 0.86,1.1 0.86,1.94l0 2.92c0,0.27 0.06,0.49 0.18,0.64 0.12,0.16 0.29,0.23 0.49,0.23 0.16,0 0.29,-0.03 0.41,-0.09l0 0.82c-0.16,0.11 -0.39,0.16 -0.7,0.16 -0.35,0 -0.65,-0.1 -0.89,-0.29 -0.24,-0.19 -0.39,-0.47 -0.45,-0.84 -0.71,0.83 -1.67,1.25 -2.86,1.25zm9.42 0c-0.65,0 -1.15,-0.19 -1.49,-0.58 -0.34,-0.39 -0.51,-0.92 -0.51,-1.6l0 -4.15 -1.67 0 0 -0.92 1.67 0 0 -2.18 1.06 0 0 2.18 2.48 0 0 0.92 -2.48 0 0 3.82c0,0.57 0.09,0.96 0.28,1.17 0.2,0.22 0.51,0.34 0.95,0.34 0.43,0 0.82,-0.1 1.16,-0.29l0 0.97c-0.3,0.22 -0.79,0.32 -1.45,0.32zm8.41 -0.18l-1.05 0 0 -7.08 1.05 0 0 1.35c0.26,-0.46 0.65,-0.83 1.17,-1.11 0.52,-0.28 1.06,-0.42 1.64,-0.42l0 1.07c-0.32,0 -0.62,0.04 -0.88,0.13 -0.45,0.12 -0.85,0.32 -1.19,0.61 -0.34,0.29 -0.59,0.61 -0.75,0.97l0 4.47zm5.57 0l-1.06 0 0 -7.08 1.06 0 0 7.08zm-1.06 -8.98c-0.14,-0.15 -0.21,-0.32 -0.21,-0.53 0,-0.21 0.07,-0.38 0.21,-0.53 0.15,-0.15 0.32,-0.22 0.53,-0.22 0.21,0 0.38,0.07 0.53,0.22 0.15,0.15 0.22,0.32 0.22,0.53 0,0.21 -0.07,0.38 -0.22,0.53 -0.15,0.14 -0.32,0.21 -0.53,0.21 -0.21,0 -0.38,-0.07 -0.53,-0.21zm9.52 8.53l0 -0.75c-0.63,0.84 -1.55,1.26 -2.74,1.26 -1.05,0 -1.9,-0.35 -2.56,-1.06 -0.66,-0.72 -1,-1.59 -1,-2.59 0,-1.01 0.33,-1.87 1,-2.59 0.65,-0.71 1.51,-1.07 2.56,-1.07 1.21,0 2.12,0.42 2.74,1.26l0 -1.08 1.06 0 0 6.62c0,1.11 -0.37,1.96 -1.1,2.55 -0.71,0.6 -1.63,0.89 -2.74,0.89 -1.07,0 -1.99,-0.22 -2.74,-0.64l0 -1.03c0.8,0.48 1.68,0.72 2.64,0.72 0.88,0 1.58,-0.21 2.1,-0.63 0.52,-0.42 0.78,-1.04 0.78,-1.86zm0 -1.99l0 -2.3c-0.2,-0.46 -0.52,-0.83 -0.98,-1.12 -0.46,-0.29 -0.96,-0.43 -1.51,-0.43 -0.78,0 -1.43,0.26 -1.95,0.78 -0.52,0.52 -0.78,1.16 -0.78,1.93 0,0.77 0.26,1.42 0.78,1.93 0.51,0.51 1.16,0.76 1.95,0.76 0.55,0 1.05,-0.14 1.51,-0.43 0.46,-0.29 0.79,-0.66 0.98,-1.12zm4.59 -2.33l0 4.78 -1.05 0 0 -10.26 1.05 0 0 4.26c0.75,-0.84 1.7,-1.26 2.83,-1.26 0.87,0 1.54,0.26 2,0.77 0.46,0.51 0.7,1.24 0.7,2.18l0 4.31 -1.06 0 0 -4.07c0,-1.46 -0.67,-2.18 -2.01,-2.18 -0.49,0 -0.96,0.15 -1.42,0.45 -0.47,0.3 -0.82,0.64 -1.04,1.03zm10.7 4.95c-0.65,0 -1.15,-0.19 -1.49,-0.58 -0.34,-0.39 -0.51,-0.92 -0.51,-1.6l0 -4.15 -1.67 0 0 -0.92 1.67 0 0 -2.18 1.06 0 0 2.18 2.48 0 0 0.92 -2.48 0 0 3.82c0,0.57 0.09,0.96 0.28,1.17 0.2,0.22 0.51,0.34 0.95,0.34 0.43,0 0.82,-0.1 1.16,-0.29l0 0.97c-0.3,0.22 -0.79,0.32 -1.45,0.32z"/>
  </g>
  <g id="_1640589798496">
   <path class="fil4" d="M487.7 118.57l-5.96 0 0 -16.89 5.96 0c2.7,0 4.91,0.79 6.63,2.36 1.72,1.58 2.58,3.6 2.58,6.08 0,2.49 -0.86,4.53 -2.58,6.1 -1.7,1.56 -3.92,2.34 -6.63,2.34zm-3.31 -14.45l0 12.01 3.06 0c2.12,0 3.77,-0.54 4.95,-1.62 1.19,-1.09 1.79,-2.56 1.79,-4.39 0,-1.83 -0.6,-3.3 -1.79,-4.39 -1.17,-1.08 -2.82,-1.62 -4.95,-1.62l-3.06 0zm17.37 14.45l-2.82 0 7.38 -16.98 2.56 0 7.38 16.98 -2.85 0 -1.83 -4.2 -8.01 0 -1.81 4.2zm5.81 -13.63l-3.09 7.09 6.18 0 -3.09 -7.09zm18.79 13.63l-2.65 0 0 -7.65 -6.54 -9.24 3.09 0 4.82 6.83 4.82 -6.83 2.99 0 -6.54 9.17 0 7.72zm19.2 0.31c-1.99,0 -3.67,-0.43 -5.04,-1.28l0 -2.58c1.38,1 3.02,1.5 4.9,1.5 1.11,0 2.07,-0.31 2.87,-0.92 0.8,-0.63 1.21,-1.46 1.21,-2.51 0,-0.98 -0.35,-1.77 -1.06,-2.38 -0.71,-0.6 -1.66,-0.9 -2.85,-0.9 -0.77,0 -1.49,0.13 -2.15,0.39l0 -1.81 4.53 -4.39 -6.83 0 0 -2.32 10.35 0 0 2 -4.32 4.15c1.35,0.14 2.53,0.69 3.52,1.64 0.98,0.93 1.47,2.14 1.47,3.62 0,1.74 -0.64,3.14 -1.91,4.2 -1.25,1.06 -2.82,1.59 -4.7,1.59z"/>
   <path class="fil4" d="M460.27 141.87l-1.05 0 0 -7.08 1.05 0 0 1.35c0.26,-0.46 0.65,-0.83 1.17,-1.11 0.52,-0.28 1.06,-0.42 1.64,-0.42l0 1.07c-0.32,0 -0.62,0.04 -0.88,0.13 -0.45,0.12 -0.85,0.32 -1.19,0.61 -0.34,0.29 -0.59,0.61 -0.75,0.97l0 4.47zm7.74 0.18c-1.1,0 -2.03,-0.35 -2.78,-1.04 -0.74,-0.68 -1.11,-1.57 -1.11,-2.67 0,-1.05 0.33,-1.94 1,-2.65 0.67,-0.71 1.54,-1.07 2.59,-1.07 0.57,0 1.07,0.11 1.51,0.34 0.44,0.23 0.79,0.53 1.04,0.9 0.25,0.37 0.44,0.76 0.57,1.18 0.13,0.42 0.19,0.83 0.19,1.25l0 0.29 -5.82 0c0.06,0.76 0.36,1.37 0.92,1.82 0.55,0.45 1.25,0.68 2.1,0.68 0.82,0 1.58,-0.22 2.27,-0.66l0 0.94c-0.58,0.45 -1.4,0.67 -2.48,0.67zm-2.8 -4.32l4.73 0c-0.03,-0.55 -0.23,-1.04 -0.61,-1.48 -0.36,-0.45 -0.92,-0.67 -1.67,-0.67 -0.7,0 -1.28,0.22 -1.73,0.64 -0.44,0.44 -0.68,0.94 -0.72,1.51zm10.18 4.32c-0.57,0 -1.12,-0.07 -1.66,-0.21 -0.54,-0.14 -0.96,-0.31 -1.27,-0.52l0 -1.08c0.86,0.58 1.83,0.86 2.9,0.86 0.61,0 1.08,-0.1 1.43,-0.3 0.35,-0.2 0.52,-0.48 0.52,-0.83 0,-0.3 -0.17,-0.55 -0.5,-0.75 -0.1,-0.08 -0.35,-0.17 -0.75,-0.26 -0.12,-0.04 -0.28,-0.08 -0.48,-0.12 -0.26,-0.07 -0.42,-0.11 -0.48,-0.12 -0.89,-0.22 -1.52,-0.49 -1.9,-0.8 -0.38,-0.31 -0.57,-0.75 -0.57,-1.34 0,-0.62 0.25,-1.1 0.75,-1.44 0.5,-0.35 1.2,-0.52 2.09,-0.52 1.06,0 1.92,0.21 2.58,0.63l0 1.04c-0.8,-0.48 -1.65,-0.72 -2.54,-0.72 -0.6,0 -1.05,0.09 -1.36,0.28 -0.31,0.19 -0.46,0.44 -0.46,0.76 0,0.35 0.18,0.62 0.54,0.79 0.07,0.02 0.15,0.05 0.26,0.1 0.1,0.04 0.21,0.08 0.31,0.11l0.32 0.09c0.23,0.08 0.47,0.13 0.7,0.16 0.88,0.21 1.53,0.48 1.94,0.79 0.42,0.31 0.62,0.76 0.62,1.33 0,0.64 -0.28,1.15 -0.85,1.51 -0.57,0.37 -1.28,0.56 -2.15,0.56zm7.87 0c-0.65,0 -1.15,-0.19 -1.49,-0.58 -0.34,-0.39 -0.51,-0.92 -0.51,-1.6l0 -4.15 -1.67 0 0 -0.92 1.67 0 0 -2.18 1.06 0 0 2.18 2.48 0 0 0.92 -2.48 0 0 3.82c0,0.57 0.09,0.96 0.28,1.17 0.2,0.22 0.51,0.34 0.95,0.34 0.43,0 0.82,-0.1 1.16,-0.29l0 0.97c-0.3,0.22 -0.79,0.32 -1.45,0.32zm4.54 -0.18l-1.05 0 0 -7.08 1.05 0 0 1.35c0.26,-0.46 0.65,-0.83 1.17,-1.11 0.52,-0.28 1.06,-0.42 1.64,-0.42l0 1.07c-0.32,0 -0.62,0.04 -0.88,0.13 -0.45,0.12 -0.85,0.32 -1.19,0.61 -0.34,0.29 -0.59,0.61 -0.75,0.97l0 4.47zm5.57 0l-1.06 0 0 -7.08 1.06 0 0 7.08zm-1.06 -8.98c-0.14,-0.15 -0.21,-0.32 -0.21,-0.53 0,-0.21 0.07,-0.38 0.21,-0.53 0.15,-0.15 0.32,-0.22 0.53,-0.22 0.21,0 0.38,0.07 0.53,0.22 0.15,0.15 0.22,0.32 0.22,0.53 0,0.21 -0.07,0.38 -0.22,0.53 -0.15,0.14 -0.32,0.21 -0.53,0.21 -0.21,0 -0.38,-0.07 -0.53,-0.21zm6.99 9.16c-1.08,0 -1.98,-0.35 -2.7,-1.05 -0.71,-0.71 -1.07,-1.6 -1.07,-2.67 0,-1.06 0.36,-1.93 1.08,-2.64 0.71,-0.71 1.61,-1.07 2.7,-1.07 0.82,0 1.53,0.17 2.14,0.51l0 0.98c-0.64,-0.36 -1.3,-0.54 -1.99,-0.54 -0.82,0 -1.5,0.26 -2.04,0.79 -0.54,0.51 -0.81,1.17 -0.81,1.98 0,0.79 0.27,1.45 0.81,1.98 0.55,0.52 1.23,0.78 2.04,0.78 0.78,0 1.49,-0.21 2.12,-0.62l0 0.97c-0.66,0.4 -1.43,0.6 -2.29,0.6zm7.24 0c-0.65,0 -1.15,-0.19 -1.49,-0.58 -0.34,-0.39 -0.51,-0.92 -0.51,-1.6l0 -4.15 -1.67 0 0 -0.92 1.67 0 0 -2.18 1.06 0 0 2.18 2.48 0 0 0.92 -2.48 0 0 3.82c0,0.57 0.09,0.96 0.28,1.17 0.2,0.22 0.51,0.34 0.95,0.34 0.43,0 0.82,-0.1 1.16,-0.29l0 0.97c-0.3,0.22 -0.79,0.32 -1.45,0.32zm4.7 -0.18l-1.06 0 0 -7.08 1.06 0 0 7.08zm-1.06 -8.98c-0.14,-0.15 -0.21,-0.32 -0.21,-0.53 0,-0.21 0.07,-0.38 0.21,-0.53 0.15,-0.15 0.32,-0.22 0.53,-0.22 0.21,0 0.38,0.07 0.53,0.22 0.15,0.15 0.22,0.32 0.22,0.53 0,0.21 -0.07,0.38 -0.22,0.53 -0.15,0.14 -0.32,0.21 -0.53,0.21 -0.21,0 -0.38,-0.07 -0.53,-0.21zm4.79 4.2l0 4.78 -1.05 0 0 -7.08 1.05 0 0 1.08c0.75,-0.84 1.7,-1.26 2.83,-1.26 0.87,0 1.54,0.26 2,0.77 0.46,0.51 0.7,1.24 0.7,2.18l0 4.31 -1.06 0 0 -4.07c0,-1.46 -0.67,-2.18 -2.01,-2.18 -0.49,0 -0.96,0.15 -1.42,0.45 -0.47,0.3 -0.82,0.64 -1.04,1.03zm13.67 4.32l0 -0.75c-0.63,0.84 -1.55,1.26 -2.74,1.26 -1.05,0 -1.9,-0.35 -2.56,-1.06 -0.66,-0.72 -1,-1.59 -1,-2.59 0,-1.01 0.33,-1.87 1,-2.59 0.65,-0.71 1.51,-1.07 2.56,-1.07 1.21,0 2.12,0.42 2.74,1.26l0 -1.08 1.06 0 0 6.62c0,1.11 -0.37,1.96 -1.1,2.55 -0.71,0.6 -1.63,0.89 -2.74,0.89 -1.07,0 -1.99,-0.22 -2.74,-0.64l0 -1.03c0.8,0.48 1.68,0.72 2.64,0.72 0.88,0 1.58,-0.21 2.1,-0.63 0.52,-0.42 0.78,-1.04 0.78,-1.86zm0 -1.99l0 -2.3c-0.2,-0.46 -0.52,-0.83 -0.98,-1.12 -0.46,-0.29 -0.96,-0.43 -1.51,-0.43 -0.78,0 -1.43,0.26 -1.95,0.78 -0.52,0.52 -0.78,1.16 -0.78,1.93 0,0.77 0.26,1.42 0.78,1.93 0.51,0.51 1.16,0.76 1.95,0.76 0.55,0 1.05,-0.14 1.51,-0.43 0.46,-0.29 0.79,-0.66 0.98,-1.12zm9.01 -3.71l0 6.15 -1.06 0 0 -6.15 -1.41 0 0 -0.92 1.41 0 0 -1.19c0,-0.65 0.18,-1.17 0.53,-1.55 0.35,-0.38 0.85,-0.56 1.49,-0.56 0.6,0 1.09,0.09 1.49,0.28l0 0.97c-0.47,-0.2 -0.88,-0.29 -1.23,-0.29 -0.82,0 -1.23,0.45 -1.23,1.36l0 0.98 2.46 0 0 0.92 -2.46 0zm4.67 0c0.71,-0.73 1.63,-1.1 2.75,-1.1 1.12,0 2.04,0.37 2.75,1.1 0.71,0.71 1.07,1.59 1.07,2.62 0,1.04 -0.36,1.91 -1.07,2.62 -0.72,0.72 -1.64,1.08 -2.75,1.08 -1.11,0 -2.03,-0.36 -2.75,-1.08 -0.71,-0.71 -1.07,-1.59 -1.07,-2.62 0,-1.04 0.36,-1.91 1.07,-2.62zm5.49 2.62c0,-0.78 -0.26,-1.44 -0.78,-1.98 -0.52,-0.53 -1.17,-0.79 -1.96,-0.79 -0.79,0 -1.45,0.26 -1.96,0.79 -0.52,0.54 -0.78,1.2 -0.78,1.98 0,0.77 0.26,1.43 0.78,1.96 0.52,0.53 1.17,0.79 1.96,0.79 0.79,0 1.45,-0.26 1.96,-0.79 0.52,-0.54 0.78,-1.19 0.78,-1.96zm3.6 -2.62c0.71,-0.73 1.63,-1.1 2.75,-1.1 1.12,0 2.04,0.37 2.75,1.1 0.71,0.71 1.07,1.59 1.07,2.62 0,1.04 -0.36,1.91 -1.07,2.62 -0.72,0.72 -1.64,1.08 -2.75,1.08 -1.11,0 -2.03,-0.36 -2.75,-1.08 -0.71,-0.71 -1.07,-1.59 -1.07,-2.62 0,-1.04 0.36,-1.91 1.07,-2.62zm5.49 2.62c0,-0.78 -0.26,-1.44 -0.78,-1.98 -0.52,-0.53 -1.17,-0.79 -1.96,-0.79 -0.79,0 -1.45,0.26 -1.96,0.79 -0.52,0.54 -0.78,1.2 -0.78,1.98 0,0.77 0.26,1.43 0.78,1.96 0.52,0.53 1.17,0.79 1.96,0.79 0.79,0 1.45,-0.26 1.96,-0.79 0.52,-0.54 0.78,-1.19 0.78,-1.96zm8.83 -2.42l0 -4.31 1.06 0 0 10.26 -1.06 0 0 -1.13c-0.66,0.87 -1.58,1.3 -2.74,1.3 -1.05,0 -1.9,-0.36 -2.56,-1.08 -0.66,-0.72 -1,-1.6 -1,-2.62 0,-1.04 0.33,-1.91 1,-2.64 0.66,-0.72 1.52,-1.08 2.56,-1.08 1.16,0 2.08,0.43 2.74,1.3zm0 3.58l0 -2.33c-0.21,-0.47 -0.54,-0.85 -1,-1.15 -0.46,-0.3 -0.96,-0.45 -1.49,-0.45 -0.79,0 -1.44,0.27 -1.95,0.81 -0.52,0.54 -0.78,1.19 -0.78,1.96 0,0.77 0.26,1.43 0.78,1.96 0.52,0.53 1.17,0.79 1.95,0.79 0.53,0 1.02,-0.15 1.48,-0.45 0.46,-0.3 0.8,-0.68 1.01,-1.15zm5.95 2.55c-0.57,0 -1.12,-0.07 -1.66,-0.21 -0.54,-0.14 -0.96,-0.31 -1.27,-0.52l0 -1.08c0.86,0.58 1.83,0.86 2.9,0.86 0.61,0 1.08,-0.1 1.43,-0.3 0.35,-0.2 0.52,-0.48 0.52,-0.83 0,-0.3 -0.17,-0.55 -0.5,-0.75 -0.1,-0.08 -0.35,-0.17 -0.75,-0.26 -0.12,-0.04 -0.28,-0.08 -0.48,-0.12 -0.26,-0.07 -0.42,-0.11 -0.48,-0.12 -0.89,-0.22 -1.52,-0.49 -1.9,-0.8 -0.38,-0.31 -0.57,-0.75 -0.57,-1.34 0,-0.62 0.25,-1.1 0.75,-1.44 0.5,-0.35 1.2,-0.52 2.09,-0.52 1.06,0 1.92,0.21 2.58,0.63l0 1.04c-0.8,-0.48 -1.65,-0.72 -2.54,-0.72 -0.6,0 -1.05,0.09 -1.36,0.28 -0.31,0.19 -0.46,0.44 -0.46,0.76 0,0.35 0.18,0.62 0.54,0.79 0.07,0.02 0.15,0.05 0.26,0.1 0.1,0.04 0.21,0.08 0.31,0.11l0.32 0.09c0.23,0.08 0.47,0.13 0.7,0.16 0.88,0.21 1.53,0.48 1.94,0.79 0.42,0.31 0.62,0.76 0.62,1.33 0,0.64 -0.28,1.15 -0.85,1.51 -0.57,0.37 -1.28,0.56 -2.15,0.56zm-101.44 12.1c0.71,-0.73 1.63,-1.1 2.75,-1.1 1.12,0 2.04,0.37 2.75,1.1 0.71,0.71 1.07,1.59 1.07,2.62 0,1.04 -0.36,1.91 -1.07,2.62 -0.72,0.72 -1.64,1.08 -2.75,1.08 -1.11,0 -2.03,-0.36 -2.75,-1.08 -0.71,-0.71 -1.07,-1.59 -1.07,-2.62 0,-1.04 0.36,-1.91 1.07,-2.62zm5.49 2.62c0,-0.78 -0.26,-1.44 -0.78,-1.98 -0.52,-0.53 -1.17,-0.79 -1.96,-0.79 -0.79,0 -1.45,0.26 -1.96,0.79 -0.52,0.54 -0.78,1.2 -0.78,1.98 0,0.77 0.26,1.43 0.78,1.96 0.52,0.53 1.17,0.79 1.96,0.79 0.79,0 1.45,-0.26 1.96,-0.79 0.52,-0.54 0.78,-1.19 0.78,-1.96zm4.1 3.53l-1.05 0 0 -7.08 1.05 0 0 1.35c0.26,-0.46 0.65,-0.83 1.17,-1.11 0.52,-0.28 1.06,-0.42 1.64,-0.42l0 1.07c-0.32,0 -0.62,0.04 -0.88,0.13 -0.45,0.12 -0.85,0.32 -1.19,0.61 -0.34,0.29 -0.59,0.61 -0.75,0.97l0 4.47zm9.27 0l-1.05 0 0 -7.08 1.05 0 0 1.05c0.59,-0.82 1.44,-1.23 2.55,-1.23 0.58,0 1.06,0.12 1.46,0.37 0.4,0.24 0.67,0.59 0.81,1.03 0.27,-0.42 0.65,-0.76 1.12,-1.01 0.47,-0.25 1.01,-0.38 1.6,-0.38 0.79,0 1.41,0.25 1.85,0.74 0.44,0.49 0.66,1.19 0.66,2.1l0 4.41 -1.06 0 0 -4.18c0,-1.39 -0.59,-2.08 -1.76,-2.08 -0.43,0 -0.86,0.15 -1.28,0.45 -0.42,0.3 -0.74,0.66 -0.96,1.08 0,0.1 0,0.21 0.01,0.34 0,0.13 0.01,0.22 0.01,0.29 0,0.07 0.01,0.12 0.01,0.16l0 3.94 -1.06 0 0 -4.18c0,-1.39 -0.59,-2.08 -1.76,-2.08 -0.41,0 -0.83,0.15 -1.26,0.44 -0.41,0.27 -0.73,0.62 -0.95,1.03l0 4.79zm15.79 0.18c-1.1,0 -2.03,-0.35 -2.78,-1.04 -0.74,-0.68 -1.11,-1.57 -1.11,-2.67 0,-1.05 0.33,-1.94 1,-2.65 0.67,-0.71 1.54,-1.07 2.59,-1.07 0.57,0 1.07,0.11 1.51,0.34 0.44,0.23 0.79,0.53 1.04,0.9 0.25,0.37 0.44,0.76 0.57,1.18 0.13,0.42 0.19,0.83 0.19,1.25l0 0.29 -5.82 0c0.06,0.76 0.36,1.37 0.92,1.82 0.55,0.45 1.25,0.68 2.1,0.68 0.82,0 1.58,-0.22 2.27,-0.66l0 0.94c-0.58,0.45 -1.4,0.67 -2.48,0.67zm-2.8 -4.32l4.73 0c-0.03,-0.55 -0.23,-1.04 -0.61,-1.48 -0.36,-0.45 -0.92,-0.67 -1.67,-0.67 -0.7,0 -1.28,0.22 -1.73,0.64 -0.44,0.44 -0.68,0.94 -0.72,1.51zm10.17 3.37c0.49,0 0.95,-0.11 1.39,-0.34 0.44,-0.22 0.8,-0.51 1.07,-0.85l0 -0.98c-0.72,-0.47 -1.49,-0.7 -2.3,-0.7 -0.64,0 -1.15,0.13 -1.53,0.38 -0.38,0.25 -0.56,0.6 -0.56,1.04 0,0.46 0.18,0.82 0.54,1.07 0.36,0.25 0.82,0.38 1.39,0.38zm-0.29 0.95c-0.75,0 -1.39,-0.2 -1.92,-0.61 -0.52,-0.43 -0.78,-1.01 -0.78,-1.73 0,-0.71 0.27,-1.28 0.82,-1.71 0.55,-0.42 1.24,-0.63 2.08,-0.63 0.92,0 1.77,0.23 2.55,0.69l0 -0.7c0,-1.18 -0.78,-1.77 -2.33,-1.77 -0.83,0 -1.6,0.24 -2.32,0.72l0 -1.03c0.69,-0.43 1.54,-0.64 2.54,-0.64 0.97,0 1.74,0.23 2.31,0.68 0.57,0.45 0.86,1.1 0.86,1.94l0 2.92c0,0.27 0.06,0.49 0.18,0.64 0.12,0.16 0.29,0.23 0.49,0.23 0.16,0 0.29,-0.03 0.41,-0.09l0 0.82c-0.16,0.11 -0.39,0.16 -0.7,0.16 -0.35,0 -0.65,-0.1 -0.89,-0.29 -0.24,-0.19 -0.39,-0.47 -0.45,-0.84 -0.71,0.83 -1.67,1.25 -2.86,1.25zm8.23 0c-0.49,0 -0.88,-0.14 -1.18,-0.42 -0.3,-0.28 -0.45,-0.72 -0.45,-1.32l0 -8.69 1.05 0 0 8.44c0,0.69 0.31,1.04 0.92,1.04 0.24,0 0.47,-0.06 0.69,-0.19l0 0.94c-0.25,0.14 -0.6,0.2 -1.04,0.2zm9.33 0c-0.65,0 -1.15,-0.19 -1.49,-0.58 -0.34,-0.39 -0.51,-0.92 -0.51,-1.6l0 -4.15 -1.67 0 0 -0.92 1.67 0 0 -2.18 1.06 0 0 2.18 2.48 0 0 0.92 -2.48 0 0 3.82c0,0.57 0.09,0.96 0.28,1.17 0.2,0.22 0.51,0.34 0.95,0.34 0.43,0 0.82,-0.1 1.16,-0.29l0 0.97c-0.3,0.22 -0.79,0.32 -1.45,0.32zm4.7 -0.18l-1.06 0 0 -7.08 1.06 0 0 7.08zm-1.06 -8.98c-0.14,-0.15 -0.21,-0.32 -0.21,-0.53 0,-0.21 0.07,-0.38 0.21,-0.53 0.15,-0.15 0.32,-0.22 0.53,-0.22 0.21,0 0.38,0.07 0.53,0.22 0.15,0.15 0.22,0.32 0.22,0.53 0,0.21 -0.07,0.38 -0.22,0.53 -0.15,0.14 -0.32,0.21 -0.53,0.21 -0.21,0 -0.38,-0.07 -0.53,-0.21zm4.79 8.98l-1.05 0 0 -7.08 1.05 0 0 1.05c0.59,-0.82 1.44,-1.23 2.55,-1.23 0.58,0 1.06,0.12 1.46,0.37 0.4,0.24 0.67,0.59 0.81,1.03 0.27,-0.42 0.65,-0.76 1.12,-1.01 0.47,-0.25 1.01,-0.38 1.6,-0.38 0.79,0 1.41,0.25 1.85,0.74 0.44,0.49 0.66,1.19 0.66,2.1l0 4.41 -1.06 0 0 -4.18c0,-1.39 -0.59,-2.08 -1.76,-2.08 -0.43,0 -0.86,0.15 -1.28,0.45 -0.42,0.3 -0.74,0.66 -0.96,1.08 0,0.1 0,0.21 0.01,0.34 0,0.13 0.01,0.22 0.01,0.29 0,0.07 0.01,0.12 0.01,0.16l0 3.94 -1.06 0 0 -4.18c0,-1.39 -0.59,-2.08 -1.76,-2.08 -0.41,0 -0.83,0.15 -1.26,0.44 -0.41,0.27 -0.73,0.62 -0.95,1.03l0 4.79zm15.79 0.18c-1.1,0 -2.03,-0.35 -2.78,-1.04 -0.74,-0.68 -1.11,-1.57 -1.11,-2.67 0,-1.05 0.33,-1.94 1,-2.65 0.67,-0.71 1.54,-1.07 2.59,-1.07 0.57,0 1.07,0.11 1.51,0.34 0.44,0.23 0.79,0.53 1.04,0.9 0.25,0.37 0.44,0.76 0.57,1.18 0.13,0.42 0.19,0.83 0.19,1.25l0 0.29 -5.82 0c0.06,0.76 0.36,1.37 0.92,1.82 0.55,0.45 1.25,0.68 2.1,0.68 0.82,0 1.58,-0.22 2.27,-0.66l0 0.94c-0.58,0.45 -1.4,0.67 -2.48,0.67zm-2.8 -4.32l4.73 0c-0.03,-0.55 -0.23,-1.04 -0.61,-1.48 -0.36,-0.45 -0.92,-0.67 -1.67,-0.67 -0.7,0 -1.28,0.22 -1.73,0.64 -0.44,0.44 -0.68,0.94 -0.72,1.51zm10.18 4.32c-0.57,0 -1.12,-0.07 -1.66,-0.21 -0.54,-0.14 -0.96,-0.31 -1.27,-0.52l0 -1.08c0.86,0.58 1.83,0.86 2.9,0.86 0.61,0 1.08,-0.1 1.43,-0.3 0.35,-0.2 0.52,-0.48 0.52,-0.83 0,-0.3 -0.17,-0.55 -0.5,-0.75 -0.1,-0.08 -0.35,-0.17 -0.75,-0.26 -0.12,-0.04 -0.28,-0.08 -0.48,-0.12 -0.26,-0.07 -0.42,-0.11 -0.48,-0.12 -0.89,-0.22 -1.52,-0.49 -1.9,-0.8 -0.38,-0.31 -0.57,-0.75 -0.57,-1.34 0,-0.62 0.25,-1.1 0.75,-1.44 0.5,-0.35 1.2,-0.52 2.09,-0.52 1.06,0 1.92,0.21 2.58,0.63l0 1.04c-0.8,-0.48 -1.65,-0.72 -2.54,-0.72 -0.6,0 -1.05,0.09 -1.36,0.28 -0.31,0.19 -0.46,0.44 -0.46,0.76 0,0.35 0.18,0.62 0.54,0.79 0.07,0.02 0.15,0.05 0.26,0.1 0.1,0.04 0.21,0.08 0.31,0.11l0.32 0.09c0.23,0.08 0.47,0.13 0.7,0.16 0.88,0.21 1.53,0.48 1.94,0.79 0.42,0.31 0.62,0.76 0.62,1.33 0,0.64 -0.28,1.15 -0.85,1.51 -0.57,0.37 -1.28,0.56 -2.15,0.56z"/>
  </g>
  <g id="_1640589814304">
   <path class="fil4" d="M434.43 381.74l-5.96 0 0 -16.89 5.96 0c2.7,0 4.91,0.79 6.63,2.36 1.72,1.58 2.58,3.6 2.58,6.08 0,2.49 -0.86,4.53 -2.58,6.1 -1.7,1.56 -3.92,2.34 -6.63,2.34zm-3.31 -14.45l0 12.01 3.06 0c2.12,0 3.77,-0.54 4.95,-1.62 1.19,-1.09 1.79,-2.56 1.79,-4.39 0,-1.83 -0.6,-3.3 -1.79,-4.39 -1.17,-1.08 -2.82,-1.62 -4.95,-1.62l-3.06 0zm17.37 14.45l-2.82 0 7.38 -16.98 2.56 0 7.38 16.98 -2.85 0 -1.83 -4.2 -8.01 0 -1.81 4.2zm5.81 -13.63l-3.09 7.09 6.18 0 -3.09 -7.09zm18.79 13.63l-2.65 0 0 -7.65 -6.54 -9.24 3.09 0 4.82 6.83 4.82 -6.83 2.99 0 -6.54 9.17 0 7.72zm19.25 0.31c-1.82,0 -3.4,-0.39 -4.75,-1.16l0 -2.48c1.38,0.85 2.93,1.28 4.63,1.28 1.21,0 2.23,-0.31 3.06,-0.92 0.84,-0.63 1.25,-1.46 1.25,-2.48 0,-0.98 -0.39,-1.78 -1.17,-2.41 -0.78,-0.63 -1.81,-0.94 -3.08,-0.94 -1.3,0 -2.65,0.24 -4.05,0.72l1.11 -8.8 8.68 0 0 2.32 -6.75 0 -0.48 3.88c0.66,-0.18 1.37,-0.27 2.12,-0.27 1.82,0 3.32,0.51 4.51,1.52 1.19,1.01 1.78,2.34 1.78,3.98 0,1.77 -0.66,3.17 -1.98,4.2 -1.32,1.05 -2.95,1.57 -4.9,1.57z"/>
   <path class="fil4" d="M390.6 399.09l0 -4.31 1.06 0 0 10.26 -1.06 0 0 -1.13c-0.66,0.87 -1.58,1.3 -2.74,1.3 -1.05,0 -1.9,-0.36 -2.56,-1.08 -0.66,-0.72 -1,-1.6 -1,-2.62 0,-1.04 0.33,-1.91 1,-2.64 0.66,-0.72 1.52,-1.08 2.56,-1.08 1.16,0 2.08,0.43 2.74,1.3zm0 3.58l0 -2.33c-0.21,-0.47 -0.54,-0.85 -1,-1.15 -0.46,-0.3 -0.96,-0.45 -1.49,-0.45 -0.79,0 -1.44,0.27 -1.95,0.81 -0.52,0.54 -0.78,1.19 -0.78,1.96 0,0.77 0.26,1.43 0.78,1.96 0.52,0.53 1.17,0.79 1.95,0.79 0.53,0 1.02,-0.15 1.48,-0.45 0.46,-0.3 0.8,-0.68 1.01,-1.15zm4.6 2.37l-1.05 0 0 -7.08 1.05 0 0 1.35c0.26,-0.46 0.65,-0.83 1.17,-1.11 0.52,-0.28 1.06,-0.42 1.64,-0.42l0 1.07c-0.32,0 -0.62,0.04 -0.88,0.13 -0.45,0.12 -0.85,0.32 -1.19,0.61 -0.34,0.29 -0.59,0.61 -0.75,0.97l0 4.47zm7.74 0.18c-1.1,0 -2.03,-0.35 -2.78,-1.04 -0.74,-0.68 -1.11,-1.57 -1.11,-2.67 0,-1.05 0.33,-1.94 1,-2.65 0.67,-0.71 1.54,-1.07 2.59,-1.07 0.57,0 1.07,0.11 1.51,0.34 0.44,0.23 0.79,0.53 1.04,0.9 0.25,0.37 0.44,0.76 0.57,1.18 0.13,0.42 0.19,0.83 0.19,1.25l0 0.29 -5.82 0c0.06,0.76 0.36,1.37 0.92,1.82 0.55,0.45 1.25,0.68 2.1,0.68 0.82,0 1.58,-0.22 2.27,-0.66l0 0.94c-0.58,0.45 -1.4,0.67 -2.48,0.67zm-2.8 -4.32l4.73 0c-0.03,-0.55 -0.23,-1.04 -0.61,-1.48 -0.36,-0.45 -0.92,-0.67 -1.67,-0.67 -0.7,0 -1.28,0.22 -1.73,0.64 -0.44,0.44 -0.68,0.94 -0.72,1.51zm10.17 3.37c0.49,0 0.95,-0.11 1.39,-0.34 0.44,-0.22 0.8,-0.51 1.07,-0.85l0 -0.98c-0.72,-0.47 -1.49,-0.7 -2.3,-0.7 -0.64,0 -1.15,0.13 -1.53,0.38 -0.38,0.25 -0.56,0.6 -0.56,1.04 0,0.46 0.18,0.82 0.54,1.07 0.36,0.25 0.82,0.38 1.39,0.38zm-0.29 0.95c-0.75,0 -1.39,-0.2 -1.92,-0.61 -0.52,-0.43 -0.78,-1.01 -0.78,-1.73 0,-0.71 0.27,-1.28 0.82,-1.71 0.55,-0.42 1.24,-0.63 2.08,-0.63 0.92,0 1.77,0.23 2.55,0.69l0 -0.7c0,-1.18 -0.78,-1.77 -2.33,-1.77 -0.83,0 -1.6,0.24 -2.32,0.72l0 -1.03c0.69,-0.43 1.54,-0.64 2.54,-0.64 0.97,0 1.74,0.23 2.31,0.68 0.57,0.45 0.86,1.1 0.86,1.94l0 2.92c0,0.27 0.06,0.49 0.18,0.64 0.12,0.16 0.29,0.23 0.49,0.23 0.16,0 0.29,-0.03 0.41,-0.09l0 0.82c-0.16,0.11 -0.39,0.16 -0.7,0.16 -0.35,0 -0.65,-0.1 -0.89,-0.29 -0.24,-0.19 -0.39,-0.47 -0.45,-0.84 -0.71,0.83 -1.67,1.25 -2.86,1.25zm7.66 -0.18l-1.05 0 0 -7.08 1.05 0 0 1.05c0.59,-0.82 1.44,-1.23 2.55,-1.23 0.58,0 1.06,0.12 1.46,0.37 0.4,0.24 0.67,0.59 0.81,1.03 0.27,-0.42 0.65,-0.76 1.12,-1.01 0.47,-0.25 1.01,-0.38 1.6,-0.38 0.79,0 1.41,0.25 1.85,0.74 0.44,0.49 0.66,1.19 0.66,2.1l0 4.41 -1.06 0 0 -4.18c0,-1.39 -0.59,-2.08 -1.76,-2.08 -0.43,0 -0.86,0.15 -1.28,0.45 -0.42,0.3 -0.74,0.66 -0.96,1.08 0,0.1 0,0.21 0.01,0.34 0,0.13 0.01,0.22 0.01,0.29 0,0.07 0.01,0.12 0.01,0.16l0 3.94 -1.06 0 0 -4.18c0,-1.39 -0.59,-2.08 -1.76,-2.08 -0.41,0 -0.83,0.15 -1.26,0.44 -0.41,0.27 -0.73,0.62 -0.95,1.03l0 4.79zm13.63 0l-1.06 0 0 -7.08 1.06 0 0 7.08zm-1.06 -8.98c-0.14,-0.15 -0.21,-0.32 -0.21,-0.53 0,-0.21 0.07,-0.38 0.21,-0.53 0.15,-0.15 0.32,-0.22 0.53,-0.22 0.21,0 0.38,0.07 0.53,0.22 0.15,0.15 0.22,0.32 0.22,0.53 0,0.21 -0.07,0.38 -0.22,0.53 -0.15,0.14 -0.32,0.21 -0.53,0.21 -0.21,0 -0.38,-0.07 -0.53,-0.21zm4.79 4.2l0 4.78 -1.05 0 0 -7.08 1.05 0 0 1.08c0.75,-0.84 1.7,-1.26 2.83,-1.26 0.87,0 1.54,0.26 2,0.77 0.46,0.51 0.7,1.24 0.7,2.18l0 4.31 -1.06 0 0 -4.07c0,-1.46 -0.67,-2.18 -2.01,-2.18 -0.49,0 -0.96,0.15 -1.42,0.45 -0.47,0.3 -0.82,0.64 -1.04,1.03zm13.67 4.32l0 -0.75c-0.63,0.84 -1.55,1.26 -2.74,1.26 -1.05,0 -1.9,-0.35 -2.56,-1.06 -0.66,-0.72 -1,-1.59 -1,-2.59 0,-1.01 0.33,-1.87 1,-2.59 0.65,-0.71 1.51,-1.07 2.56,-1.07 1.21,0 2.12,0.42 2.74,1.26l0 -1.08 1.06 0 0 6.62c0,1.11 -0.37,1.96 -1.1,2.55 -0.71,0.6 -1.63,0.89 -2.74,0.89 -1.07,0 -1.99,-0.22 -2.74,-0.64l0 -1.03c0.8,0.48 1.68,0.72 2.64,0.72 0.88,0 1.58,-0.21 2.1,-0.63 0.52,-0.42 0.78,-1.04 0.78,-1.86zm0 -1.99l0 -2.3c-0.2,-0.46 -0.52,-0.83 -0.98,-1.12 -0.46,-0.29 -0.96,-0.43 -1.51,-0.43 -0.78,0 -1.43,0.26 -1.95,0.78 -0.52,0.52 -0.78,1.16 -0.78,1.93 0,0.77 0.26,1.42 0.78,1.93 0.51,0.51 1.16,0.76 1.95,0.76 0.55,0 1.05,-0.14 1.51,-0.43 0.46,-0.29 0.79,-0.66 0.98,-1.12zm7.96 -3.71c0.71,-0.73 1.63,-1.1 2.75,-1.1 1.12,0 2.04,0.37 2.75,1.1 0.71,0.71 1.07,1.59 1.07,2.62 0,1.04 -0.36,1.91 -1.07,2.62 -0.72,0.72 -1.64,1.08 -2.75,1.08 -1.11,0 -2.03,-0.36 -2.75,-1.08 -0.71,-0.71 -1.07,-1.59 -1.07,-2.62 0,-1.04 0.36,-1.91 1.07,-2.62zm5.49 2.62c0,-0.78 -0.26,-1.44 -0.78,-1.98 -0.52,-0.53 -1.17,-0.79 -1.96,-0.79 -0.79,0 -1.45,0.26 -1.96,0.79 -0.52,0.54 -0.78,1.2 -0.78,1.98 0,0.77 0.26,1.43 0.78,1.96 0.52,0.53 1.17,0.79 1.96,0.79 0.79,0 1.45,-0.26 1.96,-0.79 0.52,-0.54 0.78,-1.19 0.78,-1.96zm4.66 -2.62l0 6.15 -1.06 0 0 -6.15 -1.41 0 0 -0.92 1.41 0 0 -1.19c0,-0.65 0.18,-1.17 0.53,-1.55 0.35,-0.38 0.85,-0.56 1.49,-0.56 0.6,0 1.09,0.09 1.49,0.28l0 0.97c-0.47,-0.2 -0.88,-0.29 -1.23,-0.29 -0.82,0 -1.23,0.45 -1.23,1.36l0 0.98 2.46 0 0 0.92 -2.46 0zm7.12 9.14c-0.53,0 -0.94,-0.09 -1.25,-0.26l0 -0.97c0.31,0.19 0.65,0.28 1.03,0.28 0.83,0 1.25,-0.47 1.25,-1.42l0 -7.69 1.06 0 0 7.85c0,0.73 -0.19,1.28 -0.56,1.66 -0.37,0.37 -0.88,0.56 -1.52,0.56zm1.03 -11.97c-0.14,-0.15 -0.21,-0.32 -0.21,-0.53 0,-0.21 0.07,-0.38 0.21,-0.53 0.15,-0.15 0.32,-0.22 0.53,-0.22 0.21,0 0.38,0.07 0.53,0.22 0.15,0.15 0.22,0.32 0.22,0.53 0,0.21 -0.07,0.38 -0.22,0.53 -0.15,0.14 -0.32,0.21 -0.53,0.21 -0.21,0 -0.38,-0.07 -0.53,-0.21zm9.14 6.68l0 -4.78 1.05 0 0 7.08 -1.05 0 0 -1.08c-0.75,0.84 -1.7,1.26 -2.83,1.26 -0.87,0 -1.54,-0.26 -2,-0.77 -0.46,-0.51 -0.7,-1.24 -0.7,-2.18l0 -4.31 1.06 0 0 4.07c0,1.46 0.67,2.18 2.01,2.18 0.49,0 0.96,-0.15 1.41,-0.44 0.48,-0.31 0.83,-0.66 1.06,-1.04zm4.6 -2.48l0 4.78 -1.05 0 0 -7.08 1.05 0 0 1.08c0.75,-0.84 1.7,-1.26 2.83,-1.26 0.87,0 1.54,0.26 2,0.77 0.46,0.51 0.7,1.24 0.7,2.18l0 4.31 -1.06 0 0 -4.07c0,-1.46 -0.67,-2.18 -2.01,-2.18 -0.49,0 -0.96,0.15 -1.42,0.45 -0.47,0.3 -0.82,0.64 -1.04,1.03zm7.88 -5.48l1.05 0 0 6.09 3.37 -2.92 1.44 0 -3.74 3.19 4.26 3.88 -1.51 0 -3.82 -3.49 0 3.49 -1.05 0 0 -10.26zm13.41 4.1l0 6.15 -1.06 0 0 -6.15 -1.41 0 0 -0.92 1.41 0 0 -1.19c0,-0.65 0.18,-1.17 0.53,-1.55 0.35,-0.38 0.85,-0.56 1.49,-0.56 0.6,0 1.09,0.09 1.49,0.28l0 0.97c-0.47,-0.2 -0.88,-0.29 -1.23,-0.29 -0.82,0 -1.23,0.45 -1.23,1.36l0 0.98 2.46 0 0 0.92 -2.46 0zm4.67 0c0.71,-0.73 1.63,-1.1 2.75,-1.1 1.12,0 2.04,0.37 2.75,1.1 0.71,0.71 1.07,1.59 1.07,2.62 0,1.04 -0.36,1.91 -1.07,2.62 -0.72,0.72 -1.64,1.08 -2.75,1.08 -1.11,0 -2.03,-0.36 -2.75,-1.08 -0.71,-0.71 -1.07,-1.59 -1.07,-2.62 0,-1.04 0.36,-1.91 1.07,-2.62zm5.49 2.62c0,-0.78 -0.26,-1.44 -0.78,-1.98 -0.52,-0.53 -1.17,-0.79 -1.96,-0.79 -0.79,0 -1.45,0.26 -1.96,0.79 -0.52,0.54 -0.78,1.2 -0.78,1.98 0,0.77 0.26,1.43 0.78,1.96 0.52,0.53 1.17,0.79 1.96,0.79 0.79,0 1.45,-0.26 1.96,-0.79 0.52,-0.54 0.78,-1.19 0.78,-1.96zm3.6 -2.62c0.71,-0.73 1.63,-1.1 2.75,-1.1 1.12,0 2.04,0.37 2.75,1.1 0.71,0.71 1.07,1.59 1.07,2.62 0,1.04 -0.36,1.91 -1.07,2.62 -0.72,0.72 -1.64,1.08 -2.75,1.08 -1.11,0 -2.03,-0.36 -2.75,-1.08 -0.71,-0.71 -1.07,-1.59 -1.07,-2.62 0,-1.04 0.36,-1.91 1.07,-2.62zm5.49 2.62c0,-0.78 -0.26,-1.44 -0.78,-1.98 -0.52,-0.53 -1.17,-0.79 -1.96,-0.79 -0.79,0 -1.45,0.26 -1.96,0.79 -0.52,0.54 -0.78,1.2 -0.78,1.98 0,0.77 0.26,1.43 0.78,1.96 0.52,0.53 1.17,0.79 1.96,0.79 0.79,0 1.45,-0.26 1.96,-0.79 0.52,-0.54 0.78,-1.19 0.78,-1.96zm8.83 -2.42l0 -4.31 1.06 0 0 10.26 -1.06 0 0 -1.13c-0.66,0.87 -1.58,1.3 -2.74,1.3 -1.05,0 -1.9,-0.36 -2.56,-1.08 -0.66,-0.72 -1,-1.6 -1,-2.62 0,-1.04 0.33,-1.91 1,-2.64 0.66,-0.72 1.52,-1.08 2.56,-1.08 1.16,0 2.08,0.43 2.74,1.3zm0 3.58l0 -2.33c-0.21,-0.47 -0.54,-0.85 -1,-1.15 -0.46,-0.3 -0.96,-0.45 -1.49,-0.45 -0.79,0 -1.44,0.27 -1.95,0.81 -0.52,0.54 -0.78,1.19 -0.78,1.96 0,0.77 0.26,1.43 0.78,1.96 0.52,0.53 1.17,0.79 1.95,0.79 0.53,0 1.02,-0.15 1.48,-0.45 0.46,-0.3 0.8,-0.68 1.01,-1.15zm3.37 4.6l-0.85 0 1.17 -3.74 1.23 0 -1.55 3.74zm-167.84 16.21l0 -10.26 1.05 0 0 4.31c0.66,-0.87 1.58,-1.3 2.74,-1.3 1.05,0 1.9,0.36 2.56,1.08 0.66,0.72 1,1.6 1,2.64 0,1.03 -0.33,1.9 -1,2.62 -0.66,0.72 -1.52,1.08 -2.56,1.08 -1.16,0 -2.08,-0.43 -2.74,-1.3l0 1.13 -1.05 0zm1.05 -4.7l0 2.33c0.22,0.47 0.55,0.85 1.01,1.15 0.46,0.3 0.95,0.45 1.48,0.45 0.79,0 1.44,-0.26 1.95,-0.79 0.52,-0.54 0.78,-1.19 0.78,-1.96 0,-0.77 -0.26,-1.43 -0.78,-1.96 -0.51,-0.54 -1.16,-0.81 -1.95,-0.81 -0.54,0 -1.04,0.15 -1.49,0.45 -0.46,0.3 -0.79,0.68 -1,1.15zm13.67 2.4l0 -4.78 1.05 0 0 7.08 -1.05 0 0 -1.08c-0.75,0.84 -1.7,1.26 -2.83,1.26 -0.87,0 -1.54,-0.26 -2,-0.77 -0.46,-0.51 -0.7,-1.24 -0.7,-2.18l0 -4.31 1.06 0 0 4.07c0,1.46 0.67,2.18 2.01,2.18 0.49,0 0.96,-0.15 1.41,-0.44 0.48,-0.31 0.83,-0.66 1.06,-1.04zm6.36 2.48c-0.65,0 -1.15,-0.19 -1.49,-0.58 -0.34,-0.39 -0.51,-0.92 -0.51,-1.6l0 -4.15 -1.67 0 0 -0.92 1.67 0 0 -2.18 1.06 0 0 2.18 2.48 0 0 0.92 -2.48 0 0 3.82c0,0.57 0.09,0.96 0.28,1.17 0.2,0.22 0.51,0.34 0.95,0.34 0.43,0 0.82,-0.1 1.16,-0.29l0 0.97c-0.3,0.22 -0.79,0.32 -1.45,0.32zm7.36 -10.43l1.05 0 0 6.09 3.37 -2.92 1.44 0 -3.74 3.19 4.26 3.88 -1.51 0 -3.82 -3.49 0 3.49 -1.05 0 0 -10.26zm11.31 10.43c-1.1,0 -2.03,-0.35 -2.78,-1.04 -0.74,-0.68 -1.11,-1.57 -1.11,-2.67 0,-1.05 0.33,-1.94 1,-2.65 0.67,-0.71 1.54,-1.07 2.59,-1.07 0.57,0 1.07,0.11 1.51,0.34 0.44,0.23 0.79,0.53 1.04,0.9 0.25,0.37 0.44,0.76 0.57,1.18 0.13,0.42 0.19,0.83 0.19,1.25l0 0.29 -5.82 0c0.06,0.76 0.36,1.37 0.92,1.82 0.55,0.45 1.25,0.68 2.1,0.68 0.82,0 1.58,-0.22 2.27,-0.66l0 0.94c-0.58,0.45 -1.4,0.67 -2.48,0.67zm-2.8 -4.32l4.73 0c-0.03,-0.55 -0.23,-1.04 -0.61,-1.48 -0.36,-0.45 -0.92,-0.67 -1.67,-0.67 -0.7,0 -1.28,0.22 -1.73,0.64 -0.44,0.44 -0.68,0.94 -0.72,1.51zm11.16 4.32c-1.1,0 -2.03,-0.35 -2.78,-1.04 -0.74,-0.68 -1.11,-1.57 -1.11,-2.67 0,-1.05 0.33,-1.94 1,-2.65 0.67,-0.71 1.54,-1.07 2.59,-1.07 0.57,0 1.07,0.11 1.51,0.34 0.44,0.23 0.79,0.53 1.04,0.9 0.25,0.37 0.44,0.76 0.57,1.18 0.13,0.42 0.19,0.83 0.19,1.25l0 0.29 -5.82 0c0.06,0.76 0.36,1.37 0.92,1.82 0.55,0.45 1.25,0.68 2.1,0.68 0.82,0 1.58,-0.22 2.27,-0.66l0 0.94c-0.58,0.45 -1.4,0.67 -2.48,0.67zm-2.8 -4.32l4.73 0c-0.03,-0.55 -0.23,-1.04 -0.61,-1.48 -0.36,-0.45 -0.92,-0.67 -1.67,-0.67 -0.7,0 -1.28,0.22 -1.73,0.64 -0.44,0.44 -0.68,0.94 -0.72,1.51zm8.83 3.02l0 4.06 -1.05 0 0 -10.01 1.05 0 0 1.13c0.66,-0.87 1.58,-1.3 2.74,-1.3 1.05,0 1.9,0.36 2.56,1.08 0.66,0.72 1,1.6 1,2.62 0,1.04 -0.33,1.91 -1,2.64 -0.66,0.72 -1.52,1.08 -2.56,1.08 -1.16,0 -2.08,-0.43 -2.74,-1.3zm0 -3.57l0 2.33c0.21,0.47 0.54,0.85 1,1.15 0.46,0.3 0.96,0.45 1.49,0.45 0.79,0 1.44,-0.26 1.95,-0.79 0.52,-0.55 0.78,-1.21 0.78,-1.98 0,-0.77 -0.26,-1.43 -0.78,-1.96 -0.51,-0.53 -1.16,-0.79 -1.95,-0.79 -0.53,0 -1.02,0.15 -1.48,0.45 -0.46,0.3 -0.8,0.68 -1.01,1.15zm9.48 4.7l-1.06 0 0 -7.08 1.06 0 0 7.08zm-1.06 -8.98c-0.14,-0.15 -0.21,-0.32 -0.21,-0.53 0,-0.21 0.07,-0.38 0.21,-0.53 0.15,-0.15 0.32,-0.22 0.53,-0.22 0.21,0 0.38,0.07 0.53,0.22 0.15,0.15 0.22,0.32 0.22,0.53 0,0.21 -0.07,0.38 -0.22,0.53 -0.15,0.14 -0.32,0.21 -0.53,0.21 -0.21,0 -0.38,-0.07 -0.53,-0.21zm4.79 4.2l0 4.78 -1.05 0 0 -7.08 1.05 0 0 1.08c0.75,-0.84 1.7,-1.26 2.83,-1.26 0.87,0 1.54,0.26 2,0.77 0.46,0.51 0.7,1.24 0.7,2.18l0 4.31 -1.06 0 0 -4.07c0,-1.46 -0.67,-2.18 -2.01,-2.18 -0.49,0 -0.96,0.15 -1.42,0.45 -0.47,0.3 -0.82,0.64 -1.04,1.03zm13.67 4.32l0 -0.75c-0.63,0.84 -1.55,1.26 -2.74,1.26 -1.05,0 -1.9,-0.35 -2.56,-1.06 -0.66,-0.72 -1,-1.59 -1,-2.59 0,-1.01 0.33,-1.87 1,-2.59 0.65,-0.71 1.51,-1.07 2.56,-1.07 1.21,0 2.12,0.42 2.74,1.26l0 -1.08 1.06 0 0 6.62c0,1.11 -0.37,1.96 -1.1,2.55 -0.71,0.6 -1.63,0.89 -2.74,0.89 -1.07,0 -1.99,-0.22 -2.74,-0.64l0 -1.03c0.8,0.48 1.68,0.72 2.64,0.72 0.88,0 1.58,-0.21 2.1,-0.63 0.52,-0.42 0.78,-1.04 0.78,-1.86zm0 -1.99l0 -2.3c-0.2,-0.46 -0.52,-0.83 -0.98,-1.12 -0.46,-0.29 -0.96,-0.43 -1.51,-0.43 -0.78,0 -1.43,0.26 -1.95,0.78 -0.52,0.52 -0.78,1.16 -0.78,1.93 0,0.77 0.26,1.42 0.78,1.93 0.51,0.51 1.16,0.76 1.95,0.76 0.55,0 1.05,-0.14 1.51,-0.43 0.46,-0.29 0.79,-0.66 0.98,-1.12zm8.62 2.45l-1.06 0 0 -7.08 1.06 0 0 7.08zm-1.06 -8.98c-0.14,-0.15 -0.21,-0.32 -0.21,-0.53 0,-0.21 0.07,-0.38 0.21,-0.53 0.15,-0.15 0.32,-0.22 0.53,-0.22 0.21,0 0.38,0.07 0.53,0.22 0.15,0.15 0.22,0.32 0.22,0.53 0,0.21 -0.07,0.38 -0.22,0.53 -0.15,0.14 -0.32,0.21 -0.53,0.21 -0.21,0 -0.38,-0.07 -0.53,-0.21zm6.55 9.16c-0.65,0 -1.15,-0.19 -1.49,-0.58 -0.34,-0.39 -0.51,-0.92 -0.51,-1.6l0 -4.15 -1.67 0 0 -0.92 1.67 0 0 -2.18 1.06 0 0 2.18 2.48 0 0 0.92 -2.48 0 0 3.82c0,0.57 0.09,0.96 0.28,1.17 0.2,0.22 0.51,0.34 0.95,0.34 0.43,0 0.82,-0.1 1.16,-0.29l0 0.97c-0.3,0.22 -0.79,0.32 -1.45,0.32zm10.17 0c-0.65,0 -1.15,-0.19 -1.49,-0.58 -0.34,-0.39 -0.51,-0.92 -0.51,-1.6l0 -4.15 -1.67 0 0 -0.92 1.67 0 0 -2.18 1.06 0 0 2.18 2.48 0 0 0.92 -2.48 0 0 3.82c0,0.57 0.09,0.96 0.28,1.17 0.2,0.22 0.51,0.34 0.95,0.34 0.43,0 0.82,-0.1 1.16,-0.29l0 0.97c-0.3,0.22 -0.79,0.32 -1.45,0.32zm4.04 -6.33c0.71,-0.73 1.63,-1.1 2.75,-1.1 1.12,0 2.04,0.37 2.75,1.1 0.71,0.71 1.07,1.59 1.07,2.62 0,1.04 -0.36,1.91 -1.07,2.62 -0.72,0.72 -1.64,1.08 -2.75,1.08 -1.11,0 -2.03,-0.36 -2.75,-1.08 -0.71,-0.71 -1.07,-1.59 -1.07,-2.62 0,-1.04 0.36,-1.91 1.07,-2.62zm5.49 2.62c0,-0.78 -0.26,-1.44 -0.78,-1.98 -0.52,-0.53 -1.17,-0.79 -1.96,-0.79 -0.79,0 -1.45,0.26 -1.96,0.79 -0.52,0.54 -0.78,1.2 -0.78,1.98 0,0.77 0.26,1.43 0.78,1.96 0.52,0.53 1.17,0.79 1.96,0.79 0.79,0 1.45,-0.26 1.96,-0.79 0.52,-0.54 0.78,-1.19 0.78,-1.96zm7.31 6.52c-0.51,0 -0.88,-0.07 -1.13,-0.21l0 -0.98c0.3,0.16 0.63,0.23 0.97,0.23 0.43,0 0.8,-0.18 1.11,-0.54 0.31,-0.36 0.64,-0.94 0.98,-1.77l-3.15 -6.81 1.17 0 2.51 5.57 2.43 -5.57 1.14 0 -3.5 7.87c-0.64,1.47 -1.48,2.2 -2.54,2.2zm8.29 -9.14c0.71,-0.73 1.63,-1.1 2.75,-1.1 1.12,0 2.04,0.37 2.75,1.1 0.71,0.71 1.07,1.59 1.07,2.62 0,1.04 -0.36,1.91 -1.07,2.62 -0.72,0.72 -1.64,1.08 -2.75,1.08 -1.11,0 -2.03,-0.36 -2.75,-1.08 -0.71,-0.71 -1.07,-1.59 -1.07,-2.62 0,-1.04 0.36,-1.91 1.07,-2.62zm5.49 2.62c0,-0.78 -0.26,-1.44 -0.78,-1.98 -0.52,-0.53 -1.17,-0.79 -1.96,-0.79 -0.79,0 -1.45,0.26 -1.96,0.79 -0.52,0.54 -0.78,1.2 -0.78,1.98 0,0.77 0.26,1.43 0.78,1.96 0.52,0.53 1.17,0.79 1.96,0.79 0.79,0 1.45,-0.26 1.96,-0.79 0.52,-0.54 0.78,-1.19 0.78,-1.96zm8.45 1.23l0 -4.78 1.05 0 0 7.08 -1.05 0 0 -1.08c-0.75,0.84 -1.7,1.26 -2.83,1.26 -0.87,0 -1.54,-0.26 -2,-0.77 -0.46,-0.51 -0.7,-1.24 -0.7,-2.18l0 -4.31 1.06 0 0 4.07c0,1.46 0.67,2.18 2.01,2.18 0.49,0 0.96,-0.15 1.41,-0.44 0.48,-0.31 0.83,-0.66 1.06,-1.04zm4.6 2.3l-1.05 0 0 -7.08 1.05 0 0 1.35c0.26,-0.46 0.65,-0.83 1.17,-1.11 0.52,-0.28 1.06,-0.42 1.64,-0.42l0 1.07c-0.32,0 -0.62,0.04 -0.88,0.13 -0.45,0.12 -0.85,0.32 -1.19,0.61 -0.34,0.29 -0.59,0.61 -0.75,0.97l0 4.47zm6.75 0.18c-0.57,0 -1.12,-0.07 -1.66,-0.21 -0.54,-0.14 -0.96,-0.31 -1.27,-0.52l0 -1.08c0.86,0.58 1.83,0.86 2.9,0.86 0.61,0 1.08,-0.1 1.43,-0.3 0.35,-0.2 0.52,-0.48 0.52,-0.83 0,-0.3 -0.17,-0.55 -0.5,-0.75 -0.1,-0.08 -0.35,-0.17 -0.75,-0.26 -0.12,-0.04 -0.28,-0.08 -0.48,-0.12 -0.26,-0.07 -0.42,-0.11 -0.48,-0.12 -0.89,-0.22 -1.52,-0.49 -1.9,-0.8 -0.38,-0.31 -0.57,-0.75 -0.57,-1.34 0,-0.62 0.25,-1.1 0.75,-1.44 0.5,-0.35 1.2,-0.52 2.09,-0.52 1.06,0 1.92,0.21 2.58,0.63l0 1.04c-0.8,-0.48 -1.65,-0.72 -2.54,-0.72 -0.6,0 -1.05,0.09 -1.36,0.28 -0.31,0.19 -0.46,0.44 -0.46,0.76 0,0.35 0.18,0.62 0.54,0.79 0.07,0.02 0.15,0.05 0.26,0.1 0.1,0.04 0.21,0.08 0.31,0.11l0.32 0.09c0.23,0.08 0.47,0.13 0.7,0.16 0.88,0.21 1.53,0.48 1.94,0.79 0.42,0.31 0.62,0.76 0.62,1.33 0,0.64 -0.28,1.15 -0.85,1.51 -0.57,0.37 -1.28,0.56 -2.15,0.56zm8.44 0c-1.1,0 -2.03,-0.35 -2.78,-1.04 -0.74,-0.68 -1.11,-1.57 -1.11,-2.67 0,-1.05 0.33,-1.94 1,-2.65 0.67,-0.71 1.54,-1.07 2.59,-1.07 0.57,0 1.07,0.11 1.51,0.34 0.44,0.23 0.79,0.53 1.04,0.9 0.25,0.37 0.44,0.76 0.57,1.18 0.13,0.42 0.19,0.83 0.19,1.25l0 0.29 -5.82 0c0.06,0.76 0.36,1.37 0.92,1.82 0.55,0.45 1.25,0.68 2.1,0.68 0.82,0 1.58,-0.22 2.27,-0.66l0 0.94c-0.58,0.45 -1.4,0.67 -2.48,0.67zm-2.8 -4.32l4.73 0c-0.03,-0.55 -0.23,-1.04 -0.61,-1.48 -0.36,-0.45 -0.92,-0.67 -1.67,-0.67 -0.7,0 -1.28,0.22 -1.73,0.64 -0.44,0.44 -0.68,0.94 -0.72,1.51zm9.41 4.32c-0.49,0 -0.88,-0.14 -1.18,-0.42 -0.3,-0.28 -0.45,-0.72 -0.45,-1.32l0 -8.69 1.05 0 0 8.44c0,0.69 0.31,1.04 0.92,1.04 0.24,0 0.47,-0.06 0.69,-0.19l0 0.94c-0.25,0.14 -0.6,0.2 -1.04,0.2zm4.26 -6.33l0 6.15 -1.06 0 0 -6.15 -1.41 0 0 -0.92 1.41 0 0 -1.19c0,-0.65 0.18,-1.17 0.53,-1.55 0.35,-0.38 0.85,-0.56 1.49,-0.56 0.6,0 1.09,0.09 1.49,0.28l0 0.97c-0.47,-0.2 -0.88,-0.29 -1.23,-0.29 -0.82,0 -1.23,0.45 -1.23,1.36l0 0.98 2.46 0 0 0.92 -2.46 0zm4.6 6.24c-0.21,0 -0.4,-0.07 -0.54,-0.22 -0.15,-0.15 -0.22,-0.33 -0.22,-0.54 0,-0.22 0.07,-0.4 0.22,-0.54 0.15,-0.15 0.33,-0.22 0.54,-0.22 0.22,0 0.4,0.07 0.54,0.22 0.15,0.15 0.22,0.33 0.22,0.54 0,0.21 -0.07,0.4 -0.22,0.54 -0.15,0.15 -0.33,0.22 -0.54,0.22z"/>
  </g>
  <g id="_1640589818912">
   <path class="fil4" d="M94.5 381.89l-5.96 0 0 -16.89 5.96 0c2.7,0 4.91,0.79 6.63,2.36 1.72,1.58 2.58,3.6 2.58,6.08 0,2.49 -0.86,4.53 -2.58,6.1 -1.7,1.56 -3.92,2.34 -6.63,2.34zm-3.31 -14.45l0 12.01 3.06 0c2.12,0 3.77,-0.54 4.95,-1.62 1.19,-1.09 1.79,-2.56 1.79,-4.39 0,-1.83 -0.6,-3.3 -1.79,-4.39 -1.17,-1.08 -2.82,-1.62 -4.95,-1.62l-3.06 0zm17.37 14.45l-2.82 0 7.38 -16.98 2.56 0 7.38 16.98 -2.85 0 -1.83 -4.2 -8.01 0 -1.81 4.2zm5.81 -13.63l-3.09 7.09 6.18 0 -3.09 -7.09zm18.79 13.63l-2.65 0 0 -7.65 -6.54 -9.24 3.09 0 4.82 6.83 4.82 -6.83 2.99 0 -6.54 9.17 0 7.72zm18.21 0l-2.85 0 7.31 -14.5 -8.52 0 0 -2.39 11.53 0 0 2.05 -7.48 14.84z"/>
   <path class="fil4" d="M2.99 405.8c0.49,0 0.95,-0.11 1.39,-0.34 0.44,-0.22 0.8,-0.51 1.07,-0.85l0 -0.98c-0.72,-0.47 -1.49,-0.7 -2.3,-0.7 -0.64,0 -1.15,0.13 -1.53,0.38 -0.38,0.25 -0.56,0.6 -0.56,1.04 0,0.46 0.18,0.82 0.54,1.07 0.36,0.25 0.82,0.38 1.39,0.38zm-0.29 0.95c-0.75,0 -1.39,-0.2 -1.92,-0.61 -0.52,-0.43 -0.78,-1.01 -0.78,-1.73 0,-0.71 0.27,-1.28 0.82,-1.71 0.55,-0.42 1.24,-0.63 2.08,-0.63 0.92,0 1.77,0.23 2.55,0.69l0 -0.7c0,-1.18 -0.78,-1.77 -2.33,-1.77 -0.83,0 -1.6,0.24 -2.32,0.72l0 -1.03c0.69,-0.43 1.54,-0.64 2.54,-0.64 0.97,0 1.74,0.23 2.31,0.68 0.57,0.45 0.86,1.1 0.86,1.94l0 2.92c0,0.27 0.06,0.49 0.18,0.64 0.12,0.16 0.29,0.23 0.49,0.23 0.16,0 0.29,-0.03 0.41,-0.09l0 0.82c-0.16,0.11 -0.39,0.16 -0.7,0.16 -0.35,0 -0.65,-0.1 -0.89,-0.29 -0.24,-0.19 -0.39,-0.47 -0.45,-0.84 -0.71,0.83 -1.67,1.25 -2.86,1.25zm7.66 -4.95l0 4.78 -1.05 0 0 -7.08 1.05 0 0 1.08c0.75,-0.84 1.7,-1.26 2.83,-1.26 0.87,0 1.54,0.26 2,0.77 0.46,0.51 0.7,1.24 0.7,2.18l0 4.31 -1.06 0 0 -4.07c0,-1.46 -0.67,-2.18 -2.01,-2.18 -0.49,0 -0.96,0.15 -1.42,0.45 -0.47,0.3 -0.82,0.64 -1.04,1.03zm13.67 -1.17l0 -4.31 1.06 0 0 10.26 -1.06 0 0 -1.13c-0.66,0.87 -1.58,1.3 -2.74,1.3 -1.05,0 -1.9,-0.36 -2.56,-1.08 -0.66,-0.72 -1,-1.6 -1,-2.62 0,-1.04 0.33,-1.91 1,-2.64 0.66,-0.72 1.52,-1.08 2.56,-1.08 1.16,0 2.08,0.43 2.74,1.3zm0 3.58l0 -2.33c-0.21,-0.47 -0.54,-0.85 -1,-1.15 -0.46,-0.3 -0.96,-0.45 -1.49,-0.45 -0.79,0 -1.44,0.27 -1.95,0.81 -0.52,0.54 -0.78,1.19 -0.78,1.96 0,0.77 0.26,1.43 0.78,1.96 0.52,0.53 1.17,0.79 1.95,0.79 0.53,0 1.02,-0.15 1.48,-0.45 0.46,-0.3 0.8,-0.68 1.01,-1.15zm7.97 -3.78c0.71,-0.73 1.63,-1.1 2.75,-1.1 1.12,0 2.04,0.37 2.75,1.1 0.71,0.71 1.07,1.59 1.07,2.62 0,1.04 -0.36,1.91 -1.07,2.62 -0.72,0.72 -1.64,1.08 -2.75,1.08 -1.11,0 -2.03,-0.36 -2.75,-1.08 -0.71,-0.71 -1.07,-1.59 -1.07,-2.62 0,-1.04 0.36,-1.91 1.07,-2.62zm5.49 2.62c0,-0.78 -0.26,-1.44 -0.78,-1.98 -0.52,-0.53 -1.17,-0.79 -1.96,-0.79 -0.79,0 -1.45,0.26 -1.96,0.79 -0.52,0.54 -0.78,1.2 -0.78,1.98 0,0.77 0.26,1.43 0.78,1.96 0.52,0.53 1.17,0.79 1.96,0.79 0.79,0 1.45,-0.26 1.96,-0.79 0.52,-0.54 0.78,-1.19 0.78,-1.96zm6.43 3.58l-0.97 0 -3.25 -7.12 1.19 0 2.58 5.7 2.56 -5.7 1.14 0 -3.25 7.12zm8.31 0.13c-1.1,0 -2.03,-0.35 -2.78,-1.04 -0.74,-0.68 -1.11,-1.57 -1.11,-2.67 0,-1.05 0.33,-1.94 1,-2.65 0.67,-0.71 1.54,-1.07 2.59,-1.07 0.57,0 1.07,0.11 1.51,0.34 0.44,0.23 0.79,0.53 1.04,0.9 0.25,0.37 0.44,0.76 0.57,1.18 0.13,0.42 0.19,0.83 0.19,1.25l0 0.29 -5.82 0c0.06,0.76 0.36,1.37 0.92,1.82 0.55,0.45 1.25,0.68 2.1,0.68 0.82,0 1.58,-0.22 2.27,-0.66l0 0.94c-0.58,0.45 -1.4,0.67 -2.48,0.67zm-2.8 -4.32l4.73 0c-0.03,-0.55 -0.23,-1.04 -0.61,-1.48 -0.36,-0.45 -0.92,-0.67 -1.67,-0.67 -0.7,0 -1.28,0.22 -1.73,0.64 -0.44,0.44 -0.68,0.94 -0.72,1.51zm8.83 4.15l-1.05 0 0 -7.08 1.05 0 0 1.35c0.26,-0.46 0.65,-0.83 1.17,-1.11 0.52,-0.28 1.06,-0.42 1.64,-0.42l0 1.07c-0.32,0 -0.62,0.04 -0.88,0.13 -0.45,0.12 -0.85,0.32 -1.19,0.61 -0.34,0.29 -0.59,0.61 -0.75,0.97l0 4.47zm7.74 0.18c-1.1,0 -2.03,-0.35 -2.78,-1.04 -0.74,-0.68 -1.11,-1.57 -1.11,-2.67 0,-1.05 0.33,-1.94 1,-2.65 0.67,-0.71 1.54,-1.07 2.59,-1.07 0.57,0 1.07,0.11 1.51,0.34 0.44,0.23 0.79,0.53 1.04,0.9 0.25,0.37 0.44,0.76 0.57,1.18 0.13,0.42 0.19,0.83 0.19,1.25l0 0.29 -5.82 0c0.06,0.76 0.36,1.37 0.92,1.82 0.55,0.45 1.25,0.68 2.1,0.68 0.82,0 1.58,-0.22 2.27,-0.66l0 0.94c-0.58,0.45 -1.4,0.67 -2.48,0.67zm-2.8 -4.32l4.73 0c-0.03,-0.55 -0.23,-1.04 -0.61,-1.48 -0.36,-0.45 -0.92,-0.67 -1.67,-0.67 -0.7,0 -1.28,0.22 -1.73,0.64 -0.44,0.44 -0.68,0.94 -0.72,1.51zm10.17 3.37c0.49,0 0.95,-0.11 1.39,-0.34 0.44,-0.22 0.8,-0.51 1.07,-0.85l0 -0.98c-0.72,-0.47 -1.49,-0.7 -2.3,-0.7 -0.64,0 -1.15,0.13 -1.53,0.38 -0.38,0.25 -0.56,0.6 -0.56,1.04 0,0.46 0.18,0.82 0.54,1.07 0.36,0.25 0.82,0.38 1.39,0.38zm-0.29 0.95c-0.75,0 -1.39,-0.2 -1.92,-0.61 -0.52,-0.43 -0.78,-1.01 -0.78,-1.73 0,-0.71 0.27,-1.28 0.82,-1.71 0.55,-0.42 1.24,-0.63 2.08,-0.63 0.92,0 1.77,0.23 2.55,0.69l0 -0.7c0,-1.18 -0.78,-1.77 -2.33,-1.77 -0.83,0 -1.6,0.24 -2.32,0.72l0 -1.03c0.69,-0.43 1.54,-0.64 2.54,-0.64 0.97,0 1.74,0.23 2.31,0.68 0.57,0.45 0.86,1.1 0.86,1.94l0 2.92c0,0.27 0.06,0.49 0.18,0.64 0.12,0.16 0.29,0.23 0.49,0.23 0.16,0 0.29,-0.03 0.41,-0.09l0 0.82c-0.16,0.11 -0.39,0.16 -0.7,0.16 -0.35,0 -0.65,-0.1 -0.89,-0.29 -0.24,-0.19 -0.39,-0.47 -0.45,-0.84 -0.71,0.83 -1.67,1.25 -2.86,1.25zm9.42 0c-0.65,0 -1.15,-0.19 -1.49,-0.58 -0.34,-0.39 -0.51,-0.92 -0.51,-1.6l0 -4.15 -1.67 0 0 -0.92 1.67 0 0 -2.18 1.06 0 0 2.18 2.48 0 0 0.92 -2.48 0 0 3.82c0,0.57 0.09,0.96 0.28,1.17 0.2,0.22 0.51,0.34 0.95,0.34 0.43,0 0.82,-0.1 1.16,-0.29l0 0.97c-0.3,0.22 -0.79,0.32 -1.45,0.32zm9.76 0c-0.57,0 -1.12,-0.07 -1.66,-0.21 -0.54,-0.14 -0.96,-0.31 -1.27,-0.52l0 -1.08c0.86,0.58 1.83,0.86 2.9,0.86 0.61,0 1.08,-0.1 1.43,-0.3 0.35,-0.2 0.52,-0.48 0.52,-0.83 0,-0.3 -0.17,-0.55 -0.5,-0.75 -0.1,-0.08 -0.35,-0.17 -0.75,-0.26 -0.12,-0.04 -0.28,-0.08 -0.48,-0.12 -0.26,-0.07 -0.42,-0.11 -0.48,-0.12 -0.89,-0.22 -1.52,-0.49 -1.9,-0.8 -0.38,-0.31 -0.57,-0.75 -0.57,-1.34 0,-0.62 0.25,-1.1 0.75,-1.44 0.5,-0.35 1.2,-0.52 2.09,-0.52 1.06,0 1.92,0.21 2.58,0.63l0 1.04c-0.8,-0.48 -1.65,-0.72 -2.54,-0.72 -0.6,0 -1.05,0.09 -1.36,0.28 -0.31,0.19 -0.46,0.44 -0.46,0.76 0,0.35 0.18,0.62 0.54,0.79 0.07,0.02 0.15,0.05 0.26,0.1 0.1,0.04 0.21,0.08 0.31,0.11l0.32 0.09c0.23,0.08 0.47,0.13 0.7,0.16 0.88,0.21 1.53,0.48 1.94,0.79 0.42,0.31 0.62,0.76 0.62,1.33 0,0.64 -0.28,1.15 -0.85,1.51 -0.57,0.37 -1.28,0.56 -2.15,0.56zm5.61 -6.33c0.71,-0.73 1.63,-1.1 2.75,-1.1 1.12,0 2.04,0.37 2.75,1.1 0.71,0.71 1.07,1.59 1.07,2.62 0,1.04 -0.36,1.91 -1.07,2.62 -0.72,0.72 -1.64,1.08 -2.75,1.08 -1.11,0 -2.03,-0.36 -2.75,-1.08 -0.71,-0.71 -1.07,-1.59 -1.07,-2.62 0,-1.04 0.36,-1.91 1.07,-2.62zm5.49 2.62c0,-0.78 -0.26,-1.44 -0.78,-1.98 -0.52,-0.53 -1.17,-0.79 -1.96,-0.79 -0.79,0 -1.45,0.26 -1.96,0.79 -0.52,0.54 -0.78,1.2 -0.78,1.98 0,0.77 0.26,1.43 0.78,1.96 0.52,0.53 1.17,0.79 1.96,0.79 0.79,0 1.45,-0.26 1.96,-0.79 0.52,-0.54 0.78,-1.19 0.78,-1.96zm4.1 3.53l-1.05 0 0 -7.08 1.05 0 0 1.05c0.59,-0.82 1.44,-1.23 2.55,-1.23 0.58,0 1.06,0.12 1.46,0.37 0.4,0.24 0.67,0.59 0.81,1.03 0.27,-0.42 0.65,-0.76 1.12,-1.01 0.47,-0.25 1.01,-0.38 1.6,-0.38 0.79,0 1.41,0.25 1.85,0.74 0.44,0.49 0.66,1.19 0.66,2.1l0 4.41 -1.06 0 0 -4.18c0,-1.39 -0.59,-2.08 -1.76,-2.08 -0.43,0 -0.86,0.15 -1.28,0.45 -0.42,0.3 -0.74,0.66 -0.96,1.08 0,0.1 0,0.21 0.01,0.34 0,0.13 0.01,0.22 0.01,0.29 0,0.07 0.01,0.12 0.01,0.16l0 3.94 -1.06 0 0 -4.18c0,-1.39 -0.59,-2.08 -1.76,-2.08 -0.41,0 -0.83,0.15 -1.26,0.44 -0.41,0.27 -0.73,0.62 -0.95,1.03l0 4.79zm15.79 0.18c-1.1,0 -2.03,-0.35 -2.78,-1.04 -0.74,-0.68 -1.11,-1.57 -1.11,-2.67 0,-1.05 0.33,-1.94 1,-2.65 0.67,-0.71 1.54,-1.07 2.59,-1.07 0.57,0 1.07,0.11 1.51,0.34 0.44,0.23 0.79,0.53 1.04,0.9 0.25,0.37 0.44,0.76 0.57,1.18 0.13,0.42 0.19,0.83 0.19,1.25l0 0.29 -5.82 0c0.06,0.76 0.36,1.37 0.92,1.82 0.55,0.45 1.25,0.68 2.1,0.68 0.82,0 1.58,-0.22 2.27,-0.66l0 0.94c-0.58,0.45 -1.4,0.67 -2.48,0.67zm-2.8 -4.32l4.73 0c-0.03,-0.55 -0.23,-1.04 -0.61,-1.48 -0.36,-0.45 -0.92,-0.67 -1.67,-0.67 -0.7,0 -1.28,0.22 -1.73,0.64 -0.44,0.44 -0.68,0.94 -0.72,1.51zm10.59 4.32c-0.65,0 -1.15,-0.19 -1.49,-0.58 -0.34,-0.39 -0.51,-0.92 -0.51,-1.6l0 -4.15 -1.67 0 0 -0.92 1.67 0 0 -2.18 1.06 0 0 2.18 2.48 0 0 0.92 -2.48 0 0 3.82c0,0.57 0.09,0.96 0.28,1.17 0.2,0.22 0.51,0.34 0.95,0.34 0.43,0 0.82,-0.1 1.16,-0.29l0 0.97c-0.3,0.22 -0.79,0.32 -1.45,0.32zm4.54 -4.95l0 4.78 -1.05 0 0 -10.26 1.05 0 0 4.26c0.75,-0.84 1.7,-1.26 2.83,-1.26 0.87,0 1.54,0.26 2,0.77 0.46,0.51 0.7,1.24 0.7,2.18l0 4.31 -1.06 0 0 -4.07c0,-1.46 -0.67,-2.18 -2.01,-2.18 -0.49,0 -0.96,0.15 -1.42,0.45 -0.47,0.3 -0.82,0.64 -1.04,1.03zm9.1 4.78l-1.06 0 0 -7.08 1.06 0 0 7.08zm-1.06 -8.98c-0.14,-0.15 -0.21,-0.32 -0.21,-0.53 0,-0.21 0.07,-0.38 0.21,-0.53 0.15,-0.15 0.32,-0.22 0.53,-0.22 0.21,0 0.38,0.07 0.53,0.22 0.15,0.15 0.22,0.32 0.22,0.53 0,0.21 -0.07,0.38 -0.22,0.53 -0.15,0.14 -0.32,0.21 -0.53,0.21 -0.21,0 -0.38,-0.07 -0.53,-0.21zm4.79 4.2l0 4.78 -1.05 0 0 -7.08 1.05 0 0 1.08c0.75,-0.84 1.7,-1.26 2.83,-1.26 0.87,0 1.54,0.26 2,0.77 0.46,0.51 0.7,1.24 0.7,2.18l0 4.31 -1.06 0 0 -4.07c0,-1.46 -0.67,-2.18 -2.01,-2.18 -0.49,0 -0.96,0.15 -1.42,0.45 -0.47,0.3 -0.82,0.64 -1.04,1.03zm13.67 4.32l0 -0.75c-0.63,0.84 -1.55,1.26 -2.74,1.26 -1.05,0 -1.9,-0.35 -2.56,-1.06 -0.66,-0.72 -1,-1.59 -1,-2.59 0,-1.01 0.33,-1.87 1,-2.59 0.65,-0.71 1.51,-1.07 2.56,-1.07 1.21,0 2.12,0.42 2.74,1.26l0 -1.08 1.06 0 0 6.62c0,1.11 -0.37,1.96 -1.1,2.55 -0.71,0.6 -1.63,0.89 -2.74,0.89 -1.07,0 -1.99,-0.22 -2.74,-0.64l0 -1.03c0.8,0.48 1.68,0.72 2.64,0.72 0.88,0 1.58,-0.21 2.1,-0.63 0.52,-0.42 0.78,-1.04 0.78,-1.86zm0 -1.99l0 -2.3c-0.2,-0.46 -0.52,-0.83 -0.98,-1.12 -0.46,-0.29 -0.96,-0.43 -1.51,-0.43 -0.78,0 -1.43,0.26 -1.95,0.78 -0.52,0.52 -0.78,1.16 -0.78,1.93 0,0.77 0.26,1.42 0.78,1.93 0.51,0.51 1.16,0.76 1.95,0.76 0.55,0 1.05,-0.14 1.51,-0.43 0.46,-0.29 0.79,-0.66 0.98,-1.12zm7.9 -4.1l-0.94 0 0 -3.71 0.94 0 0 3.71zm2.71 0l-0.94 0 0 -3.71 0.94 0 0 3.71zm3.66 0.4l0 6.15 -1.06 0 0 -6.15 -1.41 0 0 -0.92 1.41 0 0 -1.19c0,-0.65 0.18,-1.17 0.53,-1.55 0.35,-0.38 0.85,-0.56 1.49,-0.56 0.6,0 1.09,0.09 1.49,0.28l0 0.97c-0.47,-0.2 -0.88,-0.29 -1.23,-0.29 -0.82,0 -1.23,0.45 -1.23,1.36l0 0.98 2.46 0 0 0.92 -2.46 0zm4.67 0c0.71,-0.73 1.63,-1.1 2.75,-1.1 1.12,0 2.04,0.37 2.75,1.1 0.71,0.71 1.07,1.59 1.07,2.62 0,1.04 -0.36,1.91 -1.07,2.62 -0.72,0.72 -1.64,1.08 -2.75,1.08 -1.11,0 -2.03,-0.36 -2.75,-1.08 -0.71,-0.71 -1.07,-1.59 -1.07,-2.62 0,-1.04 0.36,-1.91 1.07,-2.62zm5.49 2.62c0,-0.78 -0.26,-1.44 -0.78,-1.98 -0.52,-0.53 -1.17,-0.79 -1.96,-0.79 -0.79,0 -1.45,0.26 -1.96,0.79 -0.52,0.54 -0.78,1.2 -0.78,1.98 0,0.77 0.26,1.43 0.78,1.96 0.52,0.53 1.17,0.79 1.96,0.79 0.79,0 1.45,-0.26 1.96,-0.79 0.52,-0.54 0.78,-1.19 0.78,-1.96zm4.1 3.53l-1.05 0 0 -7.08 1.05 0 0 1.35c0.26,-0.46 0.65,-0.83 1.17,-1.11 0.52,-0.28 1.06,-0.42 1.64,-0.42l0 1.07c-0.32,0 -0.62,0.04 -0.88,0.13 -0.45,0.12 -0.85,0.32 -1.19,0.61 -0.34,0.29 -0.59,0.61 -0.75,0.97l0 4.47zm4.35 0l0 -10.26 1.05 0 0 4.31c0.66,-0.87 1.58,-1.3 2.74,-1.3 1.05,0 1.9,0.36 2.56,1.08 0.66,0.72 1,1.6 1,2.64 0,1.03 -0.33,1.9 -1,2.62 -0.66,0.72 -1.52,1.08 -2.56,1.08 -1.16,0 -2.08,-0.43 -2.74,-1.3l0 1.13 -1.05 0zm1.05 -4.7l0 2.33c0.22,0.47 0.55,0.85 1.01,1.15 0.46,0.3 0.95,0.45 1.48,0.45 0.79,0 1.44,-0.26 1.95,-0.79 0.52,-0.54 0.78,-1.19 0.78,-1.96 0,-0.77 -0.26,-1.43 -0.78,-1.96 -0.51,-0.54 -1.16,-0.81 -1.95,-0.81 -0.54,0 -1.04,0.15 -1.49,0.45 -0.46,0.3 -0.79,0.68 -1,1.15zm9.48 4.7l-1.06 0 0 -7.08 1.06 0 0 7.08zm-1.06 -8.98c-0.14,-0.15 -0.21,-0.32 -0.21,-0.53 0,-0.21 0.07,-0.38 0.21,-0.53 0.15,-0.15 0.32,-0.22 0.53,-0.22 0.21,0 0.38,0.07 0.53,0.22 0.15,0.15 0.22,0.32 0.22,0.53 0,0.21 -0.07,0.38 -0.22,0.53 -0.15,0.14 -0.32,0.21 -0.53,0.21 -0.21,0 -0.38,-0.07 -0.53,-0.21zm9.52 3.03l0 -4.31 1.06 0 0 10.26 -1.06 0 0 -1.13c-0.66,0.87 -1.58,1.3 -2.74,1.3 -1.05,0 -1.9,-0.36 -2.56,-1.08 -0.66,-0.72 -1,-1.6 -1,-2.62 0,-1.04 0.33,-1.91 1,-2.64 0.66,-0.72 1.52,-1.08 2.56,-1.08 1.16,0 2.08,0.43 2.74,1.3zm0 3.58l0 -2.33c-0.21,-0.47 -0.54,-0.85 -1,-1.15 -0.46,-0.3 -0.96,-0.45 -1.49,-0.45 -0.79,0 -1.44,0.27 -1.95,0.81 -0.52,0.54 -0.78,1.19 -0.78,1.96 0,0.77 0.26,1.43 0.78,1.96 0.52,0.53 1.17,0.79 1.95,0.79 0.53,0 1.02,-0.15 1.48,-0.45 0.46,-0.3 0.8,-0.68 1.01,-1.15zm9.33 -3.58l0 -4.31 1.06 0 0 10.26 -1.06 0 0 -1.13c-0.66,0.87 -1.58,1.3 -2.74,1.3 -1.05,0 -1.9,-0.36 -2.56,-1.08 -0.66,-0.72 -1,-1.6 -1,-2.62 0,-1.04 0.33,-1.91 1,-2.64 0.66,-0.72 1.52,-1.08 2.56,-1.08 1.16,0 2.08,0.43 2.74,1.3zm0 3.58l0 -2.33c-0.21,-0.47 -0.54,-0.85 -1,-1.15 -0.46,-0.3 -0.96,-0.45 -1.49,-0.45 -0.79,0 -1.44,0.27 -1.95,0.81 -0.52,0.54 -0.78,1.19 -0.78,1.96 0,0.77 0.26,1.43 0.78,1.96 0.52,0.53 1.17,0.79 1.95,0.79 0.53,0 1.02,-0.15 1.48,-0.45 0.46,-0.3 0.8,-0.68 1.01,-1.15zm6.93 2.55c-1.1,0 -2.03,-0.35 -2.78,-1.04 -0.74,-0.68 -1.11,-1.57 -1.11,-2.67 0,-1.05 0.33,-1.94 1,-2.65 0.67,-0.71 1.54,-1.07 2.59,-1.07 0.57,0 1.07,0.11 1.51,0.34 0.44,0.23 0.79,0.53 1.04,0.9 0.25,0.37 0.44,0.76 0.57,1.18 0.13,0.42 0.19,0.83 0.19,1.25l0 0.29 -5.82 0c0.06,0.76 0.36,1.37 0.92,1.82 0.55,0.45 1.25,0.68 2.1,0.68 0.82,0 1.58,-0.22 2.27,-0.66l0 0.94c-0.58,0.45 -1.4,0.67 -2.48,0.67zm-2.8 -4.32l4.73 0c-0.03,-0.55 -0.23,-1.04 -0.61,-1.48 -0.36,-0.45 -0.92,-0.67 -1.67,-0.67 -0.7,0 -1.28,0.22 -1.73,0.64 -0.44,0.44 -0.68,0.94 -0.72,1.51zm8.83 -0.63l0 4.78 -1.05 0 0 -7.08 1.05 0 0 1.08c0.75,-0.84 1.7,-1.26 2.83,-1.26 0.87,0 1.54,0.26 2,0.77 0.46,0.51 0.7,1.24 0.7,2.18l0 4.31 -1.06 0 0 -4.07c0,-1.46 -0.67,-2.18 -2.01,-2.18 -0.49,0 -0.96,0.15 -1.42,0.45 -0.47,0.3 -0.82,0.64 -1.04,1.03zm8.38 -1.77l-0.94 0 0 -3.71 0.94 0 0 3.71zm2.71 0l-0.94 0 0 -3.71 0.94 0 0 3.71z"/>
  </g>
  <path class="fil4" d="M34.73 119.34l-5.96 0 0 -16.89 5.96 0c2.7,0 4.91,0.79 6.63,2.36 1.72,1.58 2.58,3.6 2.58,6.08 0,2.49 -0.86,4.53 -2.58,6.1 -1.7,1.56 -3.92,2.34 -6.63,2.34zm-3.31 -14.45l0 12.01 3.06 0c2.12,0 3.77,-0.54 4.95,-1.62 1.19,-1.09 1.79,-2.56 1.79,-4.39 0,-1.83 -0.6,-3.3 -1.79,-4.39 -1.17,-1.08 -2.82,-1.62 -4.95,-1.62l-3.06 0zm17.37 14.45l-2.82 0 7.38 -16.98 2.56 0 7.38 16.98 -2.85 0 -1.83 -4.2 -8.01 0 -1.81 4.2zm5.81 -13.63l-3.09 7.09 6.18 0 -3.09 -7.09zm18.79 13.63l-2.65 0 0 -7.65 -6.54 -9.24 3.09 0 4.82 6.83 4.82 -6.83 2.99 0 -6.54 9.17 0 7.72zm19.2 0.31c-1.99,0 -3.67,-0.43 -5.04,-1.28l0 -2.58c1.38,1 3.02,1.5 4.9,1.5 1.11,0 2.07,-0.31 2.87,-0.92 0.8,-0.63 1.21,-1.46 1.21,-2.51 0,-0.98 -0.35,-1.77 -1.06,-2.38 -0.71,-0.6 -1.66,-0.9 -2.85,-0.9 -0.77,0 -1.49,0.13 -2.15,0.39l0 -1.81 4.53 -4.39 -6.83 0 0 -2.32 10.35 0 0 2 -4.32 4.15c1.35,0.14 2.53,0.69 3.52,1.64 0.98,0.93 1.47,2.14 1.47,3.62 0,1.74 -0.64,3.14 -1.91,4.2 -1.25,1.06 -2.82,1.59 -4.7,1.59z"/>
  <path class="fil4" d="M12.26 142.63l0 -10.26 1.05 0 0 4.31c0.66,-0.87 1.58,-1.3 2.74,-1.3 1.05,0 1.9,0.36 2.56,1.08 0.66,0.72 1,1.6 1,2.64 0,1.03 -0.33,1.9 -1,2.62 -0.66,0.72 -1.52,1.08 -2.56,1.08 -1.16,0 -2.08,-0.43 -2.74,-1.3l0 1.13 -1.05 0zm1.05 -4.7l0 2.33c0.22,0.47 0.55,0.85 1.01,1.15 0.46,0.3 0.95,0.45 1.48,0.45 0.79,0 1.44,-0.26 1.95,-0.79 0.52,-0.54 0.78,-1.19 0.78,-1.96 0,-0.77 -0.26,-1.43 -0.78,-1.96 -0.51,-0.54 -1.16,-0.81 -1.95,-0.81 -0.54,0 -1.04,0.15 -1.49,0.45 -0.46,0.3 -0.79,0.68 -1,1.15zm9.89 4.88c-0.49,0 -0.88,-0.14 -1.18,-0.42 -0.3,-0.28 -0.45,-0.72 -0.45,-1.32l0 -8.69 1.05 0 0 8.44c0,0.69 0.31,1.04 0.92,1.04 0.24,0 0.47,-0.06 0.69,-0.19l0 0.94c-0.25,0.14 -0.6,0.2 -1.04,0.2zm5.04 -0.95c0.49,0 0.95,-0.11 1.39,-0.34 0.44,-0.22 0.8,-0.51 1.07,-0.85l0 -0.98c-0.72,-0.47 -1.49,-0.7 -2.3,-0.7 -0.64,0 -1.15,0.13 -1.53,0.38 -0.38,0.25 -0.56,0.6 -0.56,1.04 0,0.46 0.18,0.82 0.54,1.07 0.36,0.25 0.82,0.38 1.39,0.38zm-0.29 0.95c-0.75,0 -1.39,-0.2 -1.92,-0.61 -0.52,-0.43 -0.78,-1.01 -0.78,-1.73 0,-0.71 0.27,-1.28 0.82,-1.71 0.55,-0.42 1.24,-0.63 2.08,-0.63 0.92,0 1.77,0.23 2.55,0.69l0 -0.7c0,-1.18 -0.78,-1.77 -2.33,-1.77 -0.83,0 -1.6,0.24 -2.32,0.72l0 -1.03c0.69,-0.43 1.54,-0.64 2.54,-0.64 0.97,0 1.74,0.23 2.31,0.68 0.57,0.45 0.86,1.1 0.86,1.94l0 2.92c0,0.27 0.06,0.49 0.18,0.64 0.12,0.16 0.29,0.23 0.49,0.23 0.16,0 0.29,-0.03 0.41,-0.09l0 0.82c-0.16,0.11 -0.39,0.16 -0.7,0.16 -0.35,0 -0.65,-0.1 -0.89,-0.29 -0.24,-0.19 -0.39,-0.47 -0.45,-0.84 -0.71,0.83 -1.67,1.25 -2.86,1.25zm7.66 -0.18l-1.05 0 0 -7.08 1.05 0 0 1.05c0.59,-0.82 1.44,-1.23 2.55,-1.23 0.58,0 1.06,0.12 1.46,0.37 0.4,0.24 0.67,0.59 0.81,1.03 0.27,-0.42 0.65,-0.76 1.12,-1.01 0.47,-0.25 1.01,-0.38 1.6,-0.38 0.79,0 1.41,0.25 1.85,0.74 0.44,0.49 0.66,1.19 0.66,2.1l0 4.41 -1.06 0 0 -4.18c0,-1.39 -0.59,-2.08 -1.76,-2.08 -0.43,0 -0.86,0.15 -1.28,0.45 -0.42,0.3 -0.74,0.66 -0.96,1.08 0,0.1 0,0.21 0.01,0.34 0,0.13 0.01,0.22 0.01,0.29 0,0.07 0.01,0.12 0.01,0.16l0 3.94 -1.06 0 0 -4.18c0,-1.39 -0.59,-2.08 -1.76,-2.08 -0.41,0 -0.83,0.15 -1.26,0.44 -0.41,0.27 -0.73,0.62 -0.95,1.03l0 4.79zm15.79 0.18c-1.1,0 -2.03,-0.35 -2.78,-1.04 -0.74,-0.68 -1.11,-1.57 -1.11,-2.67 0,-1.05 0.33,-1.94 1,-2.65 0.67,-0.71 1.54,-1.07 2.59,-1.07 0.57,0 1.07,0.11 1.51,0.34 0.44,0.23 0.79,0.53 1.04,0.9 0.25,0.37 0.44,0.76 0.57,1.18 0.13,0.42 0.19,0.83 0.19,1.25l0 0.29 -5.82 0c0.06,0.76 0.36,1.37 0.92,1.82 0.55,0.45 1.25,0.68 2.1,0.68 0.82,0 1.58,-0.22 2.27,-0.66l0 0.94c-0.58,0.45 -1.4,0.67 -2.48,0.67zm-2.8 -4.32l4.73 0c-0.03,-0.55 -0.23,-1.04 -0.61,-1.48 -0.36,-0.45 -0.92,-0.67 -1.67,-0.67 -0.7,0 -1.28,0.22 -1.73,0.64 -0.44,0.44 -0.68,0.94 -0.72,1.51zm12.04 7.14c-0.51,0 -0.88,-0.07 -1.13,-0.21l0 -0.98c0.3,0.16 0.63,0.23 0.97,0.23 0.43,0 0.8,-0.18 1.11,-0.54 0.31,-0.36 0.64,-0.94 0.98,-1.77l-3.15 -6.81 1.17 0 2.51 5.57 2.43 -5.57 1.14 0 -3.5 7.87c-0.64,1.47 -1.48,2.2 -2.54,2.2zm8.29 -9.14c0.71,-0.73 1.63,-1.1 2.75,-1.1 1.12,0 2.04,0.37 2.75,1.1 0.71,0.71 1.07,1.59 1.07,2.62 0,1.04 -0.36,1.91 -1.07,2.62 -0.72,0.72 -1.64,1.08 -2.75,1.08 -1.11,0 -2.03,-0.36 -2.75,-1.08 -0.71,-0.71 -1.07,-1.59 -1.07,-2.62 0,-1.04 0.36,-1.91 1.07,-2.62zm5.49 2.62c0,-0.78 -0.26,-1.44 -0.78,-1.98 -0.52,-0.53 -1.17,-0.79 -1.96,-0.79 -0.79,0 -1.45,0.26 -1.96,0.79 -0.52,0.54 -0.78,1.2 -0.78,1.98 0,0.77 0.26,1.43 0.78,1.96 0.52,0.53 1.17,0.79 1.96,0.79 0.79,0 1.45,-0.26 1.96,-0.79 0.52,-0.54 0.78,-1.19 0.78,-1.96zm8.45 1.23l0 -4.78 1.05 0 0 7.08 -1.05 0 0 -1.08c-0.75,0.84 -1.7,1.26 -2.83,1.26 -0.87,0 -1.54,-0.26 -2,-0.77 -0.46,-0.51 -0.7,-1.24 -0.7,-2.18l0 -4.31 1.06 0 0 4.07c0,1.46 0.67,2.18 2.01,2.18 0.49,0 0.96,-0.15 1.41,-0.44 0.48,-0.31 0.83,-0.66 1.06,-1.04zm4.6 2.3l-1.05 0 0 -7.08 1.05 0 0 1.35c0.26,-0.46 0.65,-0.83 1.17,-1.11 0.52,-0.28 1.06,-0.42 1.64,-0.42l0 1.07c-0.32,0 -0.62,0.04 -0.88,0.13 -0.45,0.12 -0.85,0.32 -1.19,0.61 -0.34,0.29 -0.59,0.61 -0.75,0.97l0 4.47zm6.75 0.18c-0.57,0 -1.12,-0.07 -1.66,-0.21 -0.54,-0.14 -0.96,-0.31 -1.27,-0.52l0 -1.08c0.86,0.58 1.83,0.86 2.9,0.86 0.61,0 1.08,-0.1 1.43,-0.3 0.35,-0.2 0.52,-0.48 0.52,-0.83 0,-0.3 -0.17,-0.55 -0.5,-0.75 -0.1,-0.08 -0.35,-0.17 -0.75,-0.26 -0.12,-0.04 -0.28,-0.08 -0.48,-0.12 -0.26,-0.07 -0.42,-0.11 -0.48,-0.12 -0.89,-0.22 -1.52,-0.49 -1.9,-0.8 -0.38,-0.31 -0.57,-0.75 -0.57,-1.34 0,-0.62 0.25,-1.1 0.75,-1.44 0.5,-0.35 1.2,-0.52 2.09,-0.52 1.06,0 1.92,0.21 2.58,0.63l0 1.04c-0.8,-0.48 -1.65,-0.72 -2.54,-0.72 -0.6,0 -1.05,0.09 -1.36,0.28 -0.31,0.19 -0.46,0.44 -0.46,0.76 0,0.35 0.18,0.62 0.54,0.79 0.07,0.02 0.15,0.05 0.26,0.1 0.1,0.04 0.21,0.08 0.31,0.11l0.32 0.09c0.23,0.08 0.47,0.13 0.7,0.16 0.88,0.21 1.53,0.48 1.94,0.79 0.42,0.31 0.62,0.76 0.62,1.33 0,0.64 -0.28,1.15 -0.85,1.51 -0.57,0.37 -1.28,0.56 -2.15,0.56zm8.44 0c-1.1,0 -2.03,-0.35 -2.78,-1.04 -0.74,-0.68 -1.11,-1.57 -1.11,-2.67 0,-1.05 0.33,-1.94 1,-2.65 0.67,-0.71 1.54,-1.07 2.59,-1.07 0.57,0 1.07,0.11 1.51,0.34 0.44,0.23 0.79,0.53 1.04,0.9 0.25,0.37 0.44,0.76 0.57,1.18 0.13,0.42 0.19,0.83 0.19,1.25l0 0.29 -5.82 0c0.06,0.76 0.36,1.37 0.92,1.82 0.55,0.45 1.25,0.68 2.1,0.68 0.82,0 1.58,-0.22 2.27,-0.66l0 0.94c-0.58,0.45 -1.4,0.67 -2.48,0.67zm-2.8 -4.32l4.73 0c-0.03,-0.55 -0.23,-1.04 -0.61,-1.48 -0.36,-0.45 -0.92,-0.67 -1.67,-0.67 -0.7,0 -1.28,0.22 -1.73,0.64 -0.44,0.44 -0.68,0.94 -0.72,1.51zm9.41 4.32c-0.49,0 -0.88,-0.14 -1.18,-0.42 -0.3,-0.28 -0.45,-0.72 -0.45,-1.32l0 -8.69 1.05 0 0 8.44c0,0.69 0.31,1.04 0.92,1.04 0.24,0 0.47,-0.06 0.69,-0.19l0 0.94c-0.25,0.14 -0.6,0.2 -1.04,0.2zm4.26 -6.33l0 6.15 -1.06 0 0 -6.15 -1.41 0 0 -0.92 1.41 0 0 -1.19c0,-0.65 0.18,-1.17 0.53,-1.55 0.35,-0.38 0.85,-0.56 1.49,-0.56 0.6,0 1.09,0.09 1.49,0.28l0 0.97c-0.47,-0.2 -0.88,-0.29 -1.23,-0.29 -0.82,0 -1.23,0.45 -1.23,1.36l0 0.98 2.46 0 0 0.92 -2.46 0zm-96.23 23.81c0.49,0 0.95,-0.11 1.39,-0.34 0.44,-0.22 0.8,-0.51 1.07,-0.85l0 -0.98c-0.72,-0.47 -1.49,-0.7 -2.3,-0.7 -0.64,0 -1.15,0.13 -1.53,0.38 -0.38,0.25 -0.56,0.6 -0.56,1.04 0,0.46 0.18,0.82 0.54,1.07 0.36,0.25 0.82,0.38 1.39,0.38zm-0.29 0.95c-0.75,0 -1.39,-0.2 -1.92,-0.61 -0.52,-0.43 -0.78,-1.01 -0.78,-1.73 0,-0.71 0.27,-1.28 0.82,-1.71 0.55,-0.42 1.24,-0.63 2.08,-0.63 0.92,0 1.77,0.23 2.55,0.69l0 -0.7c0,-1.18 -0.78,-1.77 -2.33,-1.77 -0.83,0 -1.6,0.24 -2.32,0.72l0 -1.03c0.69,-0.43 1.54,-0.64 2.54,-0.64 0.97,0 1.74,0.23 2.31,0.68 0.57,0.45 0.86,1.1 0.86,1.94l0 2.92c0,0.27 0.06,0.49 0.18,0.64 0.12,0.16 0.29,0.23 0.49,0.23 0.16,0 0.29,-0.03 0.41,-0.09l0 0.82c-0.16,0.11 -0.39,0.16 -0.7,0.16 -0.35,0 -0.65,-0.1 -0.89,-0.29 -0.24,-0.19 -0.39,-0.47 -0.45,-0.84 -0.71,0.83 -1.67,1.25 -2.86,1.25zm7.66 -4.95l0 4.78 -1.05 0 0 -7.08 1.05 0 0 1.08c0.75,-0.84 1.7,-1.26 2.83,-1.26 0.87,0 1.54,0.26 2,0.77 0.46,0.51 0.7,1.24 0.7,2.18l0 4.31 -1.06 0 0 -4.07c0,-1.46 -0.67,-2.18 -2.01,-2.18 -0.49,0 -0.96,0.15 -1.42,0.45 -0.47,0.3 -0.82,0.64 -1.04,1.03zm13.67 -1.17l0 -4.31 1.06 0 0 10.26 -1.06 0 0 -1.13c-0.66,0.87 -1.58,1.3 -2.74,1.3 -1.05,0 -1.9,-0.36 -2.56,-1.08 -0.66,-0.72 -1,-1.6 -1,-2.62 0,-1.04 0.33,-1.91 1,-2.64 0.66,-0.72 1.52,-1.08 2.56,-1.08 1.16,0 2.08,0.43 2.74,1.3zm0 3.58l0 -2.33c-0.21,-0.47 -0.54,-0.85 -1,-1.15 -0.46,-0.3 -0.96,-0.45 -1.49,-0.45 -0.79,0 -1.44,0.27 -1.95,0.81 -0.52,0.54 -0.78,1.19 -0.78,1.96 0,0.77 0.26,1.43 0.78,1.96 0.52,0.53 1.17,0.79 1.95,0.79 0.53,0 1.02,-0.15 1.48,-0.45 0.46,-0.3 0.8,-0.68 1.01,-1.15zm9.82 2.55c-0.57,0 -1.12,-0.07 -1.66,-0.21 -0.54,-0.14 -0.96,-0.31 -1.27,-0.52l0 -1.08c0.86,0.58 1.83,0.86 2.9,0.86 0.61,0 1.08,-0.1 1.43,-0.3 0.35,-0.2 0.52,-0.48 0.52,-0.83 0,-0.3 -0.17,-0.55 -0.5,-0.75 -0.1,-0.08 -0.35,-0.17 -0.75,-0.26 -0.12,-0.04 -0.28,-0.08 -0.48,-0.12 -0.26,-0.07 -0.42,-0.11 -0.48,-0.12 -0.89,-0.22 -1.52,-0.49 -1.9,-0.8 -0.38,-0.31 -0.57,-0.75 -0.57,-1.34 0,-0.62 0.25,-1.1 0.75,-1.44 0.5,-0.35 1.2,-0.52 2.09,-0.52 1.06,0 1.92,0.21 2.58,0.63l0 1.04c-0.8,-0.48 -1.65,-0.72 -2.54,-0.72 -0.6,0 -1.05,0.09 -1.36,0.28 -0.31,0.19 -0.46,0.44 -0.46,0.76 0,0.35 0.18,0.62 0.54,0.79 0.07,0.02 0.15,0.05 0.26,0.1 0.1,0.04 0.21,0.08 0.31,0.11l0.32 0.09c0.23,0.08 0.47,0.13 0.7,0.16 0.88,0.21 1.53,0.48 1.94,0.79 0.42,0.31 0.62,0.76 0.62,1.33 0,0.64 -0.28,1.15 -0.85,1.51 -0.57,0.37 -1.28,0.56 -2.15,0.56zm7.87 0c-0.65,0 -1.15,-0.19 -1.49,-0.58 -0.34,-0.39 -0.51,-0.92 -0.51,-1.6l0 -4.15 -1.67 0 0 -0.92 1.67 0 0 -2.18 1.06 0 0 2.18 2.48 0 0 0.92 -2.48 0 0 3.82c0,0.57 0.09,0.96 0.28,1.17 0.2,0.22 0.51,0.34 0.95,0.34 0.43,0 0.82,-0.1 1.16,-0.29l0 0.97c-0.3,0.22 -0.79,0.32 -1.45,0.32zm5.88 -0.95c0.49,0 0.95,-0.11 1.39,-0.34 0.44,-0.22 0.8,-0.51 1.07,-0.85l0 -0.98c-0.72,-0.47 -1.49,-0.7 -2.3,-0.7 -0.64,0 -1.15,0.13 -1.53,0.38 -0.38,0.25 -0.56,0.6 -0.56,1.04 0,0.46 0.18,0.82 0.54,1.07 0.36,0.25 0.82,0.38 1.39,0.38zm-0.29 0.95c-0.75,0 -1.39,-0.2 -1.92,-0.61 -0.52,-0.43 -0.78,-1.01 -0.78,-1.73 0,-0.71 0.27,-1.28 0.82,-1.71 0.55,-0.42 1.24,-0.63 2.08,-0.63 0.92,0 1.77,0.23 2.55,0.69l0 -0.7c0,-1.18 -0.78,-1.77 -2.33,-1.77 -0.83,0 -1.6,0.24 -2.32,0.72l0 -1.03c0.69,-0.43 1.54,-0.64 2.54,-0.64 0.97,0 1.74,0.23 2.31,0.68 0.57,0.45 0.86,1.1 0.86,1.94l0 2.92c0,0.27 0.06,0.49 0.18,0.64 0.12,0.16 0.29,0.23 0.49,0.23 0.16,0 0.29,-0.03 0.41,-0.09l0 0.82c-0.16,0.11 -0.39,0.16 -0.7,0.16 -0.35,0 -0.65,-0.1 -0.89,-0.29 -0.24,-0.19 -0.39,-0.47 -0.45,-0.84 -0.71,0.83 -1.67,1.25 -2.86,1.25zm7.66 -0.18l-1.05 0 0 -7.08 1.05 0 0 1.35c0.26,-0.46 0.65,-0.83 1.17,-1.11 0.52,-0.28 1.06,-0.42 1.64,-0.42l0 1.07c-0.32,0 -0.62,0.04 -0.88,0.13 -0.45,0.12 -0.85,0.32 -1.19,0.61 -0.34,0.29 -0.59,0.61 -0.75,0.97l0 4.47zm7.16 0.18c-0.65,0 -1.15,-0.19 -1.49,-0.58 -0.34,-0.39 -0.51,-0.92 -0.51,-1.6l0 -4.15 -1.67 0 0 -0.92 1.67 0 0 -2.18 1.06 0 0 2.18 2.48 0 0 0.92 -2.48 0 0 3.82c0,0.57 0.09,0.96 0.28,1.17 0.2,0.22 0.51,0.34 0.95,0.34 0.43,0 0.82,-0.1 1.16,-0.29l0 0.97c-0.3,0.22 -0.79,0.32 -1.45,0.32zm7.91 -6.33c0.71,-0.73 1.63,-1.1 2.75,-1.1 1.12,0 2.04,0.37 2.75,1.1 0.71,0.71 1.07,1.59 1.07,2.62 0,1.04 -0.36,1.91 -1.07,2.62 -0.72,0.72 -1.64,1.08 -2.75,1.08 -1.11,0 -2.03,-0.36 -2.75,-1.08 -0.71,-0.71 -1.07,-1.59 -1.07,-2.62 0,-1.04 0.36,-1.91 1.07,-2.62zm5.49 2.62c0,-0.78 -0.26,-1.44 -0.78,-1.98 -0.52,-0.53 -1.17,-0.79 -1.96,-0.79 -0.79,0 -1.45,0.26 -1.96,0.79 -0.52,0.54 -0.78,1.2 -0.78,1.98 0,0.77 0.26,1.43 0.78,1.96 0.52,0.53 1.17,0.79 1.96,0.79 0.79,0 1.45,-0.26 1.96,-0.79 0.52,-0.54 0.78,-1.19 0.78,-1.96zm6.43 3.58l-0.97 0 -3.25 -7.12 1.19 0 2.58 5.7 2.56 -5.7 1.14 0 -3.25 7.12zm8.31 0.13c-1.1,0 -2.03,-0.35 -2.78,-1.04 -0.74,-0.68 -1.11,-1.57 -1.11,-2.67 0,-1.05 0.33,-1.94 1,-2.65 0.67,-0.71 1.54,-1.07 2.59,-1.07 0.57,0 1.07,0.11 1.51,0.34 0.44,0.23 0.79,0.53 1.04,0.9 0.25,0.37 0.44,0.76 0.57,1.18 0.13,0.42 0.19,0.83 0.19,1.25l0 0.29 -5.82 0c0.06,0.76 0.36,1.37 0.92,1.82 0.55,0.45 1.25,0.68 2.1,0.68 0.82,0 1.58,-0.22 2.27,-0.66l0 0.94c-0.58,0.45 -1.4,0.67 -2.48,0.67zm-2.8 -4.32l4.73 0c-0.03,-0.55 -0.23,-1.04 -0.61,-1.48 -0.36,-0.45 -0.92,-0.67 -1.67,-0.67 -0.7,0 -1.28,0.22 -1.73,0.64 -0.44,0.44 -0.68,0.94 -0.72,1.51zm8.83 4.15l-1.05 0 0 -7.08 1.05 0 0 1.35c0.26,-0.46 0.65,-0.83 1.17,-1.11 0.52,-0.28 1.06,-0.42 1.64,-0.42l0 1.07c-0.32,0 -0.62,0.04 -0.88,0.13 -0.45,0.12 -0.85,0.32 -1.19,0.61 -0.34,0.29 -0.59,0.61 -0.75,0.97l0 4.47z"/>
 </g>
</svg>
